<svg xmlns="http://www.w3.org/2000/svg" xmlns:xlink="http://www.w3.org/1999/xlink" width="84" height="84" viewBox="0 0 84 84"><defs><linearGradient id="a" x1="42" y1="72" x2="42" y2="32" gradientTransform="matrix(1, 0, 0, -1, 0, 84)" gradientUnits="userSpaceOnUse"><stop offset="0" stop-color="#ca2e34"/><stop offset="1" stop-color="#ad2128"/></linearGradient></defs><title>office-lease-icon</title><path d="M4,0H80a4,4,0,0,1,4,4V72a4,4,0,0,1-4,4H72v6a2,2,0,0,1-4,0V76H16v6a2,2,0,0,1-4,0V76H4a4,4,0,0,1-4-4V4A4,4,0,0,1,4,0ZM78,4H6A2,2,0,0,0,4,6V36H80V6A2,2,0,0,0,78,4ZM6,72H78a2,2,0,0,0,2-2V40H4V70A2,2,0,0,0,6,72Z"/><path d="M30,14a2,2,0,0,1,2-2H52a2,2,0,0,1,0,4H32A2,2,0,0,1,30,14Z" fill="url(#a)"/><path d="M30,50a2,2,0,0,1,2-2H52a2,2,0,0,1,0,4H32A2,2,0,0,1,30,50Z" fill="url(#a)"/><path d="M52,12H32a2,2,0,0,0,0,4H52a2,2,0,0,0,0-4ZM32,48H52a2,2,0,0,1,0,4H32a2,2,0,0,1,0-4Z" fill="url(#a)"/><path d="M52,12H32a2,2,0,0,0,0,4H52a2,2,0,0,0,0-4ZM32,48H52a2,2,0,0,1,0,4H32a2,2,0,0,1,0-4Z" fill="url(#a)"/></svg>