<svg xmlns="http://www.w3.org/2000/svg" xmlns:xlink="http://www.w3.org/1999/xlink" width="84" height="84" viewBox="0 0 84 84"><defs><linearGradient id="a" x1="42" y1="60" x2="42" y2="25" gradientTransform="matrix(1, 0, 0, -1, 0, 84)" gradientUnits="userSpaceOnUse"><stop offset="0" stop-color="#ca2e34"/><stop offset="1" stop-color="#ad2128"/></linearGradient></defs><title>parking-icon</title><path d="M41.11,24q6,0,9.45,2.91a9.92,9.92,0,0,1,3.44,8,9.92,9.92,0,0,1-3.44,8q-3.44,2.91-9.45,2.91H33.84V59H30V24ZM41,41.93q4.19,0,6.4-1.79a6.42,6.42,0,0,0,2.21-5.23,6.29,6.29,0,0,0-2.21-5.19q-2.21-1.83-6.4-1.83H33.84v14Z" transform="translate(0 0)" fill="url(#a)"/><path d="M62,82a2,2,0,0,0,2,2H80a4,4,0,0,0,4-4V64a2,2,0,0,0-4,0V78a2,2,0,0,1-2,2H64A2,2,0,0,0,62,82ZM22,82a2,2,0,0,0-2-2H6a2,2,0,0,1-2-2V64a2,2,0,0,0-4,0V80a4,4,0,0,0,4,4H20A2,2,0,0,0,22,82Z" transform="translate(0 0)" fill="#0d0e0f"/><path d="M22,2a2,2,0,0,0-2-2H4A4,4,0,0,0,0,4V20a2,2,0,0,0,4,0V6A2,2,0,0,1,6,4H20A2,2,0,0,0,22,2ZM62,2a2,2,0,0,0,2,2H78a2,2,0,0,1,2,2V20a2,2,0,0,0,4,0V4a4,4,0,0,0-4-4H64A2,2,0,0,0,62,2Z" transform="translate(0 0)" fill="#0d0e0f"/></svg>