<svg xmlns="http://www.w3.org/2000/svg" width="101" height="38" viewBox="0 0 101 38"><path fill="#fff" d="M56.6 16.4V22c0 1.6-.4 2.6-1.4 3.2a10.7 10.7 0 0 1-5 .8h-5.8V12.1h5.8a10.4 10.4 0 0 1 5 1c1 .5 1.4 1.6 1.4 3.3zM53.3 22v-5.7a1.4 1.4 0 0 0-.7-1.4 5.7 5.7 0 0 0-2.5-.4h-2.5v9.2H50a7.9 7.9 0 0 0 2.6-.3c.5-.2.8-.7.8-1.4zM69.2 19.4v3a4.2 4.2 0 0 1-.4 1.8 3.1 3.1 0 0 1-.7 1.1 3.3 3.3 0 0 1-1.2.6 6.6 6.6 0 0 1-1.4.3H64a14.8 14.8 0 0 1-1.5 0 9.3 9.3 0 0 1-1.4-.3 3.3 3.3 0 0 1-1.2-.6 3 3 0 0 1-.8-1.1 4.2 4.2 0 0 1-.3-1.7v-3a4.8 4.8 0 0 1 .4-2 2.8 2.8 0 0 1 2-1.7 6.7 6.7 0 0 1 1.3-.3 18.1 18.1 0 0 1 3 0 6.7 6.7 0 0 1 1.3.3 3.4 3.4 0 0 1 1.2.6 3.1 3.1 0 0 1 .8 1.2 4.5 4.5 0 0 1 .4 1.8zM66 23v-4a1.6 1.6 0 0 0-.4-1.2 4.2 4.2 0 0 0-3.4 0A1.5 1.5 0 0 0 62 19v4a1.4 1.4 0 0 0 .4 1.1 4.6 4.6 0 0 0 3.4 0 1.3 1.3 0 0 0 .4-1.1zM81.6 19.4v3a4.2 4.2 0 0 1-.3 1.8 3.1 3.1 0 0 1-.8 1.1 3.3 3.3 0 0 1-1.2.6 6.6 6.6 0 0 1-1.4.3h-1.5a14.8 14.8 0 0 1-1.5 0 9.3 9.3 0 0 1-1.4-.3 2.8 2.8 0 0 1-2-1.7 4.2 4.2 0 0 1-.3-1.7v-3a4.8 4.8 0 0 1 .4-2 2.8 2.8 0 0 1 2-1.7 6.7 6.7 0 0 1 1.4-.3 18.1 18.1 0 0 1 3 0 6.7 6.7 0 0 1 1.3.3 3.4 3.4 0 0 1 1.2.6 3.1 3.1 0 0 1 .8 1.2 5 5 0 0 1 .3 1.8zM78.5 23v-4a1.5 1.5 0 0 0-.4-1.2 4.2 4.2 0 0 0-3.4 0 1.5 1.5 0 0 0-.4 1.2v4a1.4 1.4 0 0 0 .4 1.1 3 3 0 0 0 1.7.3A3 3 0 0 0 78 24a1.3 1.3 0 0 0 .4-1.1zM90.6 18h-1a3.7 3.7 0 0 0-2 .4 1.5 1.5 0 0 0-.6 1.4V26h-3V15.7h2.8v1.8a1.8 1.8 0 0 1 1-1.4 3 3 0 0 1 1.7-.6h1zM101 22v1.3a2.8 2.8 0 0 1-.3 1.3 2.4 2.4 0 0 1-.7 1 3.3 3.3 0 0 1-1.1.4 7.4 7.4 0 0 1-1.3.2H96a29.6 29.6 0 0 1-4-.2v-2.1a30.4 30.4 0 0 0 4 .4 4.4 4.4 0 0 0 1.4-.2.7.7 0 0 0 .5-.7v-.6a1 1 0 0 0-.3-.7 1.9 1.9 0 0 0-1.2-.3h-1.3a4.1 4.1 0 0 1-2.4-.6 2.2 2.2 0 0 1-1-2V18a2 2 0 0 1 1.4-2 10.4 10.4 0 0 1 3.7-.5c.7 0 1.9 0 3.6.2v2l-3.7-.3a4.4 4.4 0 0 0-1.6.2.7.7 0 0 0-.3.7v.5a.6.6 0 0 0 .2.5 1.2 1.2 0 0 0 .9.2h1.3c2.5 0 3.7.8 3.7 2.5zM49.4 31.9v2.7a1.4 1.4 0 0 1-.2.8 1.2 1.2 0 0 1-.6.4 3.7 3.7 0 0 1-.7.3 4.6 4.6 0 0 1-.8 0c-1.6 0-2.4-.5-2.4-1.5v-2.7c0-1.1.8-1.7 2.4-1.7s2.3.6 2.3 1.7zm-.8 2.7v-2.8c0-.7-.5-1-1.5-1a3.5 3.5 0 0 0-.6 0 1.9 1.9 0 0 0-.5.2.9.9 0 0 0-.4.3 1 1 0 0 0-.1.6v2.7c0 .6.5 1 1.6 1s1.5-.4 1.5-1zM55.3 36h-.8v-.5q-.1.6-1.4.6a1.6 1.6 0 0 1-1.1-.3 1.3 1.3 0 0 1-.3-.9v-3.1h.8v3a1.3 1.3 0 0 0 0 .3.8.8 0 0 0 0 .2.5.5 0 0 0 .3.2 1.5 1.5 0 0 0 .5 0 2.5 2.5 0 0 0 1 0 .5.5 0 0 0 .2-.5v-3.2h.8zM60.3 36a5.5 5.5 0 0 1-1 .1 1.6 1.6 0 0 1-1-.2 1.4 1.4 0 0 1-.3-1v-2.6h-1v-.5h1v-1.4h.8v1.4h1.5v.5h-1.5V35a.8.8 0 0 0 .1.6 1 1 0 0 0 .7.1h.7v.5zM65.2 34.6v.3a1 1 0 0 1-.5 1 2.8 2.8 0 0 1-1.3.2 10.3 10.3 0 0 1-1.5 0v-.7a9.8 9.8 0 0 0 1.5.2 2.2 2.2 0 0 0 .8-.1.4.4 0 0 0 .2-.4v-.5a.4.4 0 0 0-.2-.4 1.1 1.1 0 0 0-.5 0h-.5a1.5 1.5 0 0 1-1-.4 1 1 0 0 1-.3-.7v-.4c0-.7.6-1 1.8-1H65v.6a7.6 7.6 0 0 0-1.3-.1 1.8 1.8 0 0 0-.9.1.5.5 0 0 0-.2.4v.4q0 .4.8.4h.5c.9 0 1.3.4 1.3 1zM71 33.2v1.5a1.8 1.8 0 0 1-.1.7 1 1 0 0 1-.2.4 1 1 0 0 1-.4.2 2.4 2.4 0 0 1-.6.1h-1.4a2.2 2.2 0 0 1-.6-.2.8.8 0 0 1-.4-.4 2 2 0 0 1-.1-.8v-1.5a2.1 2.1 0 0 1 0-.7 1.3 1.3 0 0 1 .3-.5 1 1 0 0 1 .4-.2 2.4 2.4 0 0 1 .5-.1h1.4a2.4 2.4 0 0 1 .5 0 .8.8 0 0 1 .4.3 1.3 1.3 0 0 1 .2.5 2.1 2.1 0 0 1 .1.7zm-.8 1.6v-1.7c0-.4 0-.7-.2-.8a2 2 0 0 0-1-.1 1.8 1.8 0 0 0-.8.1c-.2.2-.3.4-.3.8v1.7a1.8 1.8 0 0 0 .1.5.4.4 0 0 0 .2.2 1 1 0 0 0 .4.1 9 9 0 0 0 1 0 1.5 1.5 0 0 0 .3 0 .4.4 0 0 0 .2-.3 3.6 3.6 0 0 0 0-.5zM76.8 36H76v-.5q-.1.6-1.4.6a1.6 1.6 0 0 1-1.1-.3 1.2 1.2 0 0 1-.3-1v-3h.8v3a.7.7 0 0 0 0 .3.5.5 0 0 0 .1.2.5.5 0 0 0 .3.2 1.5 1.5 0 0 0 .5 0 2.5 2.5 0 0 0 .9 0 .5.5 0 0 0 .2-.5v-3.2h.8V36zM81.4 32.4h-.5a1.6 1.6 0 0 0-.7.1.6.6 0 0 0-.3.5v3h-.8v-4.2h.8v.7a.7.7 0 0 1 .3-.6 1.4 1.4 0 0 1 .8-.2h.4v.7zM86.1 36a6 6 0 0 1-1.3.1h-.6a3.8 3.8 0 0 1-.5 0 .8.8 0 0 1-.4-.3 1 1 0 0 1-.3-.4 1.9 1.9 0 0 1 0-.7v-1.5a2.6 2.6 0 0 1 0-.6 1 1 0 0 1 .2-.4 1.6 1.6 0 0 1 .3-.3 1 1 0 0 1 .4-.1l.4-.1a5.2 5.2 0 0 1 .6 0 5.6 5.6 0 0 1 1.2.1v.6a5.1 5.1 0 0 0-1.3-.2 1.5 1.5 0 0 0-.9.2.9.9 0 0 0-.2.7v1.7a.7.7 0 0 0 .3.6 1.7 1.7 0 0 0 .9.2 5.6 5.6 0 0 0 1.2-.2v.6zM88.8 31h-.7v-.8h.8zm0 5h-.7v-4.2h.8zM94.8 36H94v-3a1.3 1.3 0 0 0 0-.3.5.5 0 0 0-.1-.2.6.6 0 0 0-.3-.2 1.5 1.5 0 0 0-.5 0 1.9 1.9 0 0 0-.9.1.6.6 0 0 0-.2.6v3h-.8v-4.3h.8v.6q.1-.6 1.4-.6a1.6 1.6 0 0 1 1.1.3 1.2 1.2 0 0 1 .3 1v3zM100.7 31.8v4.6a1.3 1.3 0 0 1-.5 1.3 2.9 2.9 0 0 1-1.5.3 7.7 7.7 0 0 1-1.4-.1v-.6a12.7 12.7 0 0 0 1.5.2 1.6 1.6 0 0 0 .9-.2.7.7 0 0 0 .2-.7v-1c0 .2-.1.4-.4.5a2.8 2.8 0 0 1-.9 0 2.1 2.1 0 0 1-1.3-.2 1.3 1.3 0 0 1-.3-1V33a1.4 1.4 0 0 1 .4-1 2 2 0 0 1 1.3-.4c.7 0 1.1.2 1.3.5v-.4h.7zm-.8 3V33a.7.7 0 0 0-.2-.6 1.8 1.8 0 0 0-.9-.1 1.5 1.5 0 0 0-.8.1.7.7 0 0 0-.2.6v2a.7.7 0 0 0 .2.5 1.8 1.8 0 0 0 .8.1 1.8 1.8 0 0 0 .9-.1l.2-.6zM0 37.9l16.7-3.3V3.3L0 0zm7.6-26h2.5V26H7.6zM20.4 3.3v31.3l16.7 3.3V0zm13 10.8h-4V26H27V14h-4v-2h10.4z"/></svg>