<svg width="200" height="44" viewBox="0 0 200 44" fill="none" xmlns="http://www.w3.org/2000/svg">
<path d="M63.205 9.45435C65.4208 9.36486 67.2201 10.0211 68.6031 11.3934C69.9861 12.7656 70.685 14.4959 70.685 16.5691C70.685 18.3441 70.1645 19.8953 69.1384 21.2378C67.7703 23.0276 65.8371 23.9077 63.3389 23.9077C60.8406 23.9077 58.8926 23.0575 57.5245 21.3571C56.4389 20.0296 55.9036 18.4336 55.9036 16.5841C55.9036 14.5108 56.6025 12.7806 58.0152 11.4083C59.413 10.0211 61.1529 9.37977 63.205 9.45435ZM63.324 10.1106C62.0451 10.1106 61.0785 10.7669 60.4242 12.0646C59.8889 13.1385 59.6064 14.6748 59.6064 16.6736C59.6064 19.0601 60.0227 20.8201 60.8555 21.9537C61.4354 22.7442 62.2533 23.147 63.2943 23.147C63.9932 23.147 64.588 22.9829 65.0639 22.6398C65.6587 22.2073 66.1346 21.5062 66.4766 20.5367C66.8186 19.5672 66.9822 18.3143 66.9822 16.763C66.9822 14.9135 66.8186 13.5413 66.4766 12.6165C66.1346 11.7066 65.7033 11.0503 65.168 10.6774C64.6178 10.3045 64.0081 10.1106 63.324 10.1106Z" fill="url(#paint0_linear)"/>
<path d="M78.7744 12.0498H84.3212V12.363C83.5776 12.363 83.1315 12.4376 82.9679 12.5868C82.8044 12.7359 82.7151 13.0939 82.7151 13.6756V21.8345C82.7151 22.2671 82.7449 22.5654 82.7895 22.7295C82.849 22.8935 82.9531 23.0278 83.1315 23.1322C83.31 23.2366 83.5776 23.2813 83.9197 23.2813C83.9791 23.2813 84.113 23.2813 84.3063 23.2962V23.6095H78.3134V23.2962C78.8339 23.2813 79.1908 23.2515 79.3841 23.1769C79.5774 23.1023 79.7113 22.983 79.8005 22.804C79.8897 22.625 79.9343 22.3566 79.9343 22.0135V18.2846C78.5811 18.9856 77.3617 19.3287 76.2761 19.3287C75.6813 19.3287 75.1609 19.2243 74.7445 19.0304C74.3281 18.8365 74.0158 18.5531 73.8374 18.1802C73.6589 17.8073 73.5697 17.2852 73.5697 16.5693V13.8695C73.5697 13.2281 73.4507 12.8105 73.2277 12.6315C73.0046 12.4525 72.5882 12.363 71.9934 12.363V12.0498H77.5402V12.363C77.1684 12.363 76.871 12.4376 76.6628 12.6017C76.4546 12.7508 76.3505 13.079 76.3505 13.5712V16.6737C76.3505 17.0317 76.3802 17.2852 76.4397 17.4642C76.4992 17.6432 76.633 17.7924 76.8561 17.9415C77.0792 18.0757 77.3617 18.1503 77.7186 18.1503C78.4324 18.1503 79.1759 17.9564 79.9492 17.5537V14.0038C79.9492 13.4966 79.9195 13.1387 79.8748 12.9597C79.8302 12.7807 79.7113 12.6315 79.5477 12.5271C79.3841 12.4227 79.1164 12.363 78.7595 12.363V12.0498H78.7744Z" fill="url(#paint1_linear)"/>
<path d="M92.3367 20.313H88.2621L87.7714 21.4317C87.6078 21.8046 87.5334 22.1178 87.5334 22.3565C87.5334 22.6846 87.6673 22.9233 87.9201 23.0724C88.0688 23.1619 88.4554 23.2365 89.0502 23.2813V23.5945H85.2136V23.2813C85.63 23.2216 85.972 23.0426 86.2397 22.7592C86.5074 22.4758 86.8345 21.8941 87.2212 21.0141L91.3403 11.7813H91.5039L95.6677 21.2676C96.0692 22.1626 96.3963 22.7294 96.6491 22.968C96.8425 23.147 97.1101 23.2514 97.467 23.2813V23.5945H91.8905V23.2813H92.1136C92.5597 23.2813 92.872 23.2216 93.0504 23.0874C93.1694 22.9979 93.2438 22.8636 93.2438 22.6995C93.2438 22.5951 93.2289 22.4907 93.1992 22.3863C93.1843 22.3416 93.1099 22.1178 92.9464 21.7449L92.3367 20.313ZM92.0392 19.6866L90.3291 15.7041L88.5595 19.6866H92.0392Z" fill="url(#paint2_linear)"/>
<path d="M105.319 16.4649L109.378 21.5511C109.943 22.2671 110.449 22.7593 110.851 23.0129C111.148 23.1919 111.475 23.2814 111.802 23.2814V23.5946H105.795V23.2814C106.181 23.2515 106.419 23.1919 106.523 23.1024C106.627 23.0129 106.687 22.9085 106.687 22.7891C106.687 22.5505 106.419 22.103 105.899 21.4467L103.252 18.1056L102.82 18.4636V21.6257C102.82 22.2223 102.85 22.6102 102.925 22.7444C102.999 22.8935 103.118 23.0129 103.311 23.1173C103.504 23.2217 103.817 23.2814 104.233 23.2814V23.5946H98.4187V23.2814H98.8053C99.1325 23.2814 99.415 23.2217 99.6084 23.1024C99.7571 23.0278 99.876 22.8935 99.9504 22.6996C100.01 22.5654 100.04 22.2074 100.04 21.6257V14.0187C100.04 13.4221 100.01 13.0641 99.9504 12.9149C99.8909 12.7658 99.7571 12.6315 99.5786 12.5271C99.3853 12.4227 99.1325 12.3631 98.8053 12.3631H98.4187V12.0498H104.159V12.3631C103.772 12.3631 103.475 12.4227 103.267 12.5271C103.118 12.6017 102.999 12.7359 102.925 12.9299C102.85 13.079 102.82 13.437 102.82 14.0187V17.6134L107.103 14.138C107.698 13.6607 107.995 13.2729 107.995 12.9746C107.995 12.7658 107.876 12.5868 107.624 12.4675C107.505 12.4078 107.192 12.3631 106.702 12.3481V12.0349H111.222V12.3481C110.821 12.378 110.509 12.4526 110.271 12.5719C110.048 12.6912 109.512 13.079 108.679 13.7502L105.319 16.4649Z" fill="url(#paint3_linear)"/>
<path d="M118.375 23.296V23.6092H112.353V23.296H112.739C113.066 23.296 113.349 23.2363 113.542 23.117C113.691 23.0424 113.81 22.9082 113.884 22.7143C113.944 22.58 113.973 22.2221 113.973 21.6403V14.0333C113.973 13.4367 113.944 13.0787 113.884 12.9296C113.825 12.7804 113.691 12.6462 113.512 12.5418C113.319 12.4373 113.066 12.3777 112.739 12.3777H112.353V12.0645H118.375V12.3777H117.989C117.661 12.3777 117.379 12.4373 117.185 12.5567C117.037 12.6312 116.918 12.7655 116.843 12.9594C116.784 13.0936 116.754 13.4516 116.754 14.0333V21.6403C116.754 22.237 116.784 22.5949 116.858 22.7441C116.918 22.8933 117.052 23.0275 117.245 23.1319C117.438 23.2363 117.691 23.296 118.018 23.296H118.375Z" fill="url(#paint4_linear)"/>
<path d="M126.926 17.4791C128.026 17.7327 128.784 18.0459 129.231 18.4039C129.87 18.9259 130.182 19.5972 130.182 20.4175C130.182 21.2826 129.84 22.0135 129.141 22.5803C128.279 23.2664 127.045 23.6095 125.409 23.6095H119.55V23.2962C120.085 23.2962 120.442 23.2515 120.635 23.1471C120.829 23.0427 120.963 22.9234 121.037 22.7593C121.111 22.5952 121.156 22.2074 121.156 21.5809V14.0783C121.156 13.4519 121.111 13.0641 121.037 12.9C120.963 12.7359 120.829 12.6017 120.635 12.5122C120.442 12.4227 120.085 12.363 119.55 12.363V12.0498H125.082C126.405 12.0498 127.342 12.1691 127.892 12.4078C128.442 12.6464 128.874 12.9895 129.186 13.4668C129.498 13.9292 129.662 14.4363 129.662 14.9584C129.662 15.5102 129.454 16.0174 129.052 16.4499C128.651 16.8676 127.937 17.2256 126.926 17.4791ZM123.833 17.9117V21.6257L123.818 22.0582C123.818 22.3715 123.892 22.5952 124.056 22.7593C124.204 22.9084 124.442 22.9979 124.755 22.9979C125.201 22.9979 125.632 22.8935 126.004 22.6996C126.39 22.4908 126.673 22.2074 126.881 21.8196C127.089 21.4318 127.193 21.0141 127.193 20.5368C127.193 19.9999 127.074 19.5077 126.822 19.09C126.569 18.6575 126.227 18.3592 125.795 18.1951C125.349 17.9863 124.695 17.9117 123.833 17.9117ZM123.833 17.2405C124.636 17.2405 125.23 17.151 125.617 16.972C126.004 16.793 126.286 16.5394 126.494 16.2113C126.703 15.8831 126.807 15.4655 126.807 14.9435C126.807 14.4363 126.703 14.0187 126.509 13.6905C126.301 13.3624 126.019 13.1088 125.647 12.9447C125.275 12.7807 124.665 12.6912 123.847 12.6912V17.2405H123.833Z" fill="url(#paint5_linear)"/>
<path d="M142.808 11.7813V15.7936H142.48C142.228 14.7495 141.767 13.944 141.083 13.3921C140.399 12.8403 139.625 12.5569 138.778 12.5569C138.064 12.5569 137.395 12.7657 136.8 13.1833C136.205 13.601 135.759 14.1379 135.476 14.8091C135.119 15.6742 134.941 16.6289 134.941 17.673C134.941 18.7021 135.075 19.6567 135.328 20.5069C135.595 21.3571 135.997 21.9985 136.547 22.4311C137.097 22.8636 137.826 23.0874 138.703 23.0874C139.432 23.0874 140.086 22.9233 140.696 22.6101C141.306 22.2968 141.93 21.7449 142.599 20.9693V21.9687C141.96 22.6399 141.276 23.1321 140.577 23.4453C139.878 23.7436 139.06 23.9077 138.123 23.9077C136.889 23.9077 135.804 23.6542 134.852 23.1619C133.9 22.6697 133.157 21.9538 132.636 21.029C132.116 20.1042 131.863 19.1198 131.863 18.0757C131.863 16.9719 132.145 15.9278 132.725 14.9434C133.305 13.9589 134.079 13.1833 135.06 12.6464C136.041 12.0945 137.082 11.826 138.183 11.826C138.986 11.826 139.848 12.005 140.755 12.348C141.276 12.5569 141.603 12.6613 141.752 12.6613C141.93 12.6613 142.094 12.6016 142.228 12.4674C142.361 12.3331 142.451 12.1243 142.48 11.826H142.808V11.7813Z" fill="url(#paint6_linear)"/>
<path d="M148.905 17.3001H150.421C152.072 17.3001 153.262 17.5835 154.005 18.1652C154.749 18.747 155.12 19.5226 155.12 20.4772C155.12 21.1335 154.927 21.7003 154.555 22.1776C154.184 22.6549 153.708 23.0128 153.143 23.2366C152.578 23.4752 151.745 23.5796 150.644 23.5796H144.458V23.2664C145.172 23.2515 145.633 23.162 145.826 22.983C146.035 22.804 146.124 22.4162 146.124 21.8047V14.1529C146.124 13.3326 146.035 12.8403 145.871 12.6464C145.707 12.4674 145.261 12.363 144.547 12.363V12.0498H150.481V12.363C149.931 12.363 149.574 12.4227 149.395 12.5122C149.217 12.6017 149.083 12.721 149.009 12.8702C148.934 13.0193 148.89 13.3624 148.89 13.9292V17.3001H148.905ZM148.905 18.0459V21.5362C148.905 22.0881 148.979 22.4759 149.128 22.6996C149.276 22.9234 149.559 23.0427 149.975 23.0427C150.644 23.0427 151.135 22.8189 151.477 22.3715C151.819 21.924 151.983 21.3572 151.983 20.686C151.983 20.0446 151.834 19.4927 151.522 19.0602C151.21 18.6127 150.867 18.3442 150.496 18.2249C150.124 18.1056 149.589 18.0459 148.905 18.0459Z" fill="url(#paint7_linear)"/>
<path d="M163.329 16.4649L167.389 21.5511C167.954 22.2671 168.459 22.7593 168.861 23.0129C169.158 23.1919 169.485 23.2814 169.813 23.2814V23.5946H163.805V23.2814C164.191 23.2515 164.429 23.1919 164.533 23.1024C164.638 23.0129 164.697 22.9085 164.697 22.7891C164.697 22.5505 164.429 22.103 163.909 21.4467L161.262 18.1056L160.831 18.4636V21.6257C160.831 22.2223 160.86 22.6102 160.935 22.7444C161.009 22.8935 161.128 23.0129 161.321 23.1173C161.515 23.2217 161.827 23.2814 162.243 23.2814V23.5946H156.429V23.2814H156.816C157.143 23.2814 157.425 23.2217 157.619 23.1024C157.767 23.0278 157.886 22.8935 157.961 22.6996C158.02 22.5654 158.05 22.2074 158.05 21.6257V14.0187C158.05 13.4221 158.02 13.0641 157.961 12.9149C157.901 12.7658 157.767 12.6315 157.589 12.5271C157.396 12.4227 157.143 12.3631 156.816 12.3631H156.429V12.0498H162.169V12.3631C161.782 12.3631 161.485 12.4227 161.277 12.5271C161.128 12.6017 161.009 12.7359 160.935 12.9299C160.86 13.079 160.831 13.437 160.831 14.0187V17.6134L165.113 14.138C165.708 13.6607 166.006 13.2729 166.006 12.9746C166.006 12.7658 165.887 12.5868 165.634 12.4675C165.515 12.4078 165.203 12.3631 164.712 12.3481V12.0349H169.203V12.3481C168.801 12.378 168.489 12.4526 168.251 12.5719C168.028 12.6912 167.493 13.079 166.66 13.7502L163.329 16.4649Z" fill="url(#paint8_linear)"/>
<path d="M178.824 13.959C178.824 13.3326 178.75 12.9149 178.601 12.6912C178.452 12.4674 178.095 12.363 177.515 12.363H177.129V12.0498H183.315V12.363H182.913C182.378 12.363 182.021 12.4674 181.858 12.6763C181.679 12.8851 181.605 13.3326 181.605 14.0187V21.6257C181.605 22.3416 181.694 22.7891 181.873 22.9979C182.051 23.2068 182.393 23.2962 182.928 23.2962H183.33V23.6095H177.144V23.2962H177.53C178.066 23.2962 178.423 23.1918 178.586 22.983C178.75 22.7742 178.839 22.3267 178.839 21.6257V15.3462L174.779 21.745C174.779 22.2969 174.854 22.6996 174.987 22.9383C175.121 23.1769 175.493 23.2962 176.088 23.2962H176.489V23.6095H170.303V23.2962H170.69C171.225 23.2962 171.582 23.1918 171.746 22.983C171.909 22.7742 171.998 22.3267 171.998 21.6257V14.0187C171.998 13.3326 171.924 12.8702 171.79 12.6763C171.656 12.4674 171.285 12.363 170.675 12.363H170.288V12.0498H176.475V12.363H176.073C175.553 12.363 175.196 12.4824 175.032 12.7061C174.854 12.9298 174.764 13.3773 174.764 14.0187V20.3579L178.824 13.959Z" fill="url(#paint9_linear)"/>
<path d="M194.587 11.9602C194.587 11.1995 194.483 10.6923 194.319 10.4388C194.141 10.1703 193.71 10.036 193.011 10.036H192.55V9.64824H200V10.036H199.524C198.885 10.036 198.453 10.1554 198.245 10.4089C198.037 10.6625 197.933 11.1995 197.933 12.0348V21.2079C197.933 22.073 198.037 22.61 198.245 22.8636C198.453 23.1022 198.885 23.2215 199.524 23.2215H200V23.6093H192.535V23.2215H192.996C193.65 23.2215 194.067 23.0873 194.275 22.8337C194.483 22.5802 194.572 22.0283 194.572 21.2079V13.6307L189.665 21.3422C189.665 22.0134 189.754 22.4907 189.918 22.7741C190.081 23.0724 190.527 23.2066 191.256 23.2066H191.732V23.5944H184.267V23.2066H184.728C185.382 23.2066 185.799 23.0724 186.007 22.8188C186.215 22.5652 186.319 22.0134 186.319 21.193V12.0198C186.319 11.1846 186.23 10.6476 186.066 10.394C185.903 10.1405 185.456 10.0211 184.728 10.0211H184.267V9.63333H191.732V10.0211H191.256C190.631 10.0211 190.2 10.1554 189.992 10.4239C189.784 10.6923 189.68 11.2293 189.68 12.0198V19.6716L194.587 11.9602ZM192.104 8.30582C190.706 8.30582 189.68 8.11192 189.055 7.73903C188.431 7.36614 188.118 6.90375 188.118 6.35187C188.118 6.06847 188.222 5.84473 188.416 5.65083C188.609 5.47184 188.862 5.36743 189.144 5.36743C189.695 5.36743 190.126 5.72541 190.423 6.44136C190.587 6.82917 190.795 7.11257 191.048 7.26172C191.301 7.4258 191.643 7.50038 192.074 7.50038C192.58 7.50038 192.951 7.4258 193.189 7.26172C193.427 7.09765 193.65 6.81425 193.858 6.3817C194.186 5.69558 194.602 5.36743 195.137 5.36743C195.42 5.36743 195.673 5.45693 195.866 5.65083C196.074 5.82982 196.163 6.08339 196.163 6.41153C196.163 6.9485 195.836 7.39597 195.182 7.75395C194.528 8.12684 193.502 8.30582 192.104 8.30582Z" fill="url(#paint10_linear)"/>
<path d="M61.1232 33.8572C61.1232 34.2898 61.0637 34.6776 60.9447 35.0356C60.8257 35.3936 60.6473 35.6919 60.4094 35.9454C60.1714 36.199 59.8889 36.4078 59.5617 36.5421C59.2197 36.6763 58.8479 36.7509 58.4316 36.7509C58.0003 36.7509 57.6137 36.6763 57.3014 36.5421C56.9891 36.4078 56.7215 36.199 56.5133 35.9305C56.3051 35.662 56.1564 35.319 56.0523 34.9163C55.9482 34.5135 55.9036 34.0213 55.9036 33.4694C55.9036 33.007 55.9333 32.5745 55.9779 32.1718C56.0225 31.784 56.082 31.426 56.1712 31.1128C56.2605 30.7995 56.3497 30.531 56.4686 30.3073C56.5876 30.0836 56.7066 29.9046 56.8255 29.7852C56.9445 29.651 57.0635 29.5466 57.1824 29.472C57.3014 29.3974 57.4352 29.3229 57.5691 29.2483C57.7178 29.1886 57.8665 29.129 58.0598 29.0693C58.2383 29.0246 58.4464 28.9798 58.6695 28.9351L60.5729 28.6367C60.6473 28.6218 60.6919 28.6218 60.7365 28.6218C60.7811 28.6218 60.8109 28.6367 60.8406 28.6666C60.8704 28.6964 60.8852 28.7412 60.8852 28.8008C60.9001 28.8605 60.9001 28.95 60.9001 29.0693C60.9001 29.1439 60.9001 29.2035 60.8852 29.2632C60.8704 29.3229 60.8704 29.3676 60.8406 29.3974C60.8257 29.4273 60.796 29.4571 60.7514 29.472C60.7068 29.4869 60.6622 29.5019 60.6027 29.5168L58.8182 29.8002C58.6398 29.83 58.4762 29.8598 58.3423 29.8897C58.2085 29.9195 58.0895 29.9642 57.9855 30.009C57.8814 30.0537 57.7921 30.0985 57.7029 30.1432C57.6286 30.188 57.5393 30.2626 57.465 30.3371C57.3906 30.4117 57.3163 30.5161 57.2419 30.6354C57.1824 30.7548 57.123 30.889 57.0783 31.0382C57.0337 31.1873 56.9891 31.3514 56.9594 31.5304C56.9296 31.7094 56.8999 31.9033 56.8702 32.0972C57.004 31.9629 57.1378 31.8436 57.2865 31.7392C57.4352 31.6348 57.5839 31.5453 57.7475 31.4558C57.9111 31.3812 58.0747 31.3216 58.268 31.2768C58.4464 31.2321 58.6398 31.2172 58.8479 31.2172C59.2346 31.2172 59.5617 31.2768 59.8592 31.3961C60.1417 31.5155 60.3796 31.6945 60.5729 31.9182C60.7663 32.1419 60.9001 32.4253 60.9893 32.7386C61.0785 33.1115 61.1232 33.4694 61.1232 33.8572ZM60.0971 33.9318C60.0971 33.6783 60.0673 33.4396 60.0227 33.2159C59.9781 32.9921 59.8889 32.7833 59.7848 32.6192C59.6807 32.4402 59.532 32.306 59.3387 32.2016C59.1602 32.0972 58.9223 32.0375 58.6546 32.0375C58.4911 32.0375 58.3275 32.0524 58.1936 32.0972C58.0449 32.1419 57.9111 32.2016 57.7624 32.2762C57.6286 32.3508 57.4798 32.4552 57.346 32.5745C57.2122 32.6938 57.0635 32.843 56.8999 33.007C56.8999 33.0667 56.8999 33.1413 56.8999 33.2159C56.8999 33.2904 56.8999 33.3799 56.8999 33.4545C56.8999 33.8722 56.9296 34.2301 56.9742 34.5434C57.0337 34.8566 57.123 35.1102 57.2419 35.319C57.3609 35.5278 57.5245 35.6919 57.7327 35.7963C57.9408 35.9007 58.1788 35.9604 58.4762 35.9604C58.729 35.9604 58.9669 35.9156 59.1602 35.8112C59.3684 35.7068 59.532 35.5725 59.6658 35.4085C59.7997 35.2295 59.9038 35.0207 59.9781 34.7671C60.0673 34.5135 60.0971 34.245 60.0971 33.9318Z" fill="black"/>
<path d="M63.7106 29.6208C63.7106 29.8445 63.666 29.9936 63.5768 30.0682C63.4875 30.1428 63.324 30.1875 63.1009 30.1875C62.8778 30.1875 62.7143 30.1428 62.625 30.0682C62.5358 29.9936 62.4912 29.8445 62.4912 29.6208C62.4912 29.397 62.5358 29.2479 62.625 29.1733C62.7143 29.0987 62.8778 29.054 63.1009 29.054C63.324 29.054 63.4875 29.0987 63.5768 29.1733C63.666 29.2628 63.7106 29.4119 63.7106 29.6208ZM63.6065 36.4969C63.6065 36.5267 63.5916 36.5566 63.5768 36.5715C63.5619 36.5864 63.5322 36.6162 63.5024 36.6311C63.4727 36.6461 63.4132 36.661 63.3537 36.661C63.2942 36.6759 63.205 36.6759 63.1158 36.6759C63.0266 36.6759 62.9373 36.6759 62.8778 36.661C62.8184 36.6461 62.7589 36.6461 62.7291 36.6311C62.6845 36.6162 62.6697 36.6013 62.6548 36.5715C62.6399 36.5566 62.6399 36.5267 62.6399 36.4969V31.3659C62.6399 31.3361 62.6399 31.3211 62.6548 31.2913C62.6697 31.2615 62.6994 31.2466 62.7291 31.2316C62.7738 31.2167 62.8184 31.2018 62.8778 31.2018C62.9373 31.1869 63.0266 31.1869 63.1158 31.1869C63.2199 31.1869 63.2942 31.1869 63.3537 31.2018C63.4132 31.2167 63.4727 31.2167 63.5024 31.2316C63.5322 31.2466 63.5619 31.2615 63.5768 31.2913C63.5916 31.3211 63.6065 31.3361 63.6065 31.3659V36.4969Z" fill="black"/>
<path d="M69.1235 35.0797C69.1235 35.3332 69.064 35.5719 68.9599 35.7807C68.8558 35.9895 68.6923 36.1685 68.4989 36.3028C68.3056 36.4519 68.0528 36.5563 67.7703 36.6309C67.4877 36.7055 67.1457 36.7502 66.7888 36.7502C66.5806 36.7502 66.3873 36.7353 66.2089 36.7055C66.0304 36.6756 65.8668 36.6458 65.7181 36.6011C65.5694 36.5563 65.4505 36.5116 65.3464 36.4519C65.2423 36.4072 65.1679 36.3624 65.1382 36.3177C65.0936 36.2878 65.0638 36.258 65.049 36.2282C65.0341 36.1983 65.0192 36.1685 65.0043 36.1387C64.9895 36.1088 64.9895 36.0641 64.9895 36.0194C64.9895 35.9746 64.9746 35.9149 64.9746 35.8404C64.9746 35.7807 64.9746 35.721 64.9895 35.6912C65.0044 35.6465 65.0043 35.6166 65.0192 35.5868C65.0341 35.557 65.049 35.542 65.0638 35.5271C65.0787 35.5122 65.1084 35.5122 65.1233 35.5122C65.1679 35.5122 65.2274 35.5421 65.3018 35.5868C65.3761 35.6315 65.4802 35.6912 65.614 35.7509C65.7479 35.8105 65.9115 35.8702 66.1048 35.9299C66.2981 35.9895 66.536 36.0044 66.8186 36.0044C67.0119 36.0044 67.1903 35.9895 67.3539 35.9448C67.5175 35.9 67.6513 35.8404 67.7554 35.7658C67.8595 35.6912 67.9487 35.5868 68.0082 35.4675C68.0677 35.3481 68.0974 35.2139 68.0974 35.0498C68.0974 34.9156 68.0677 34.7963 68.0082 34.6919C67.9487 34.5874 67.8595 34.4979 67.7257 34.4234C67.5918 34.3488 67.4431 34.2891 67.2349 34.2444C67.0416 34.1996 66.8037 34.1847 66.5212 34.1847H65.9263C65.8817 34.1847 65.852 34.1847 65.8371 34.1698C65.8074 34.1549 65.7925 34.14 65.7776 34.1101C65.7628 34.0803 65.7479 34.0505 65.7479 33.9908C65.7479 33.9461 65.733 33.8864 65.733 33.8267C65.733 33.7671 65.733 33.7074 65.7479 33.6627C65.7628 33.6179 65.7628 33.5881 65.7776 33.5583C65.7925 33.5284 65.8074 33.5135 65.8371 33.4986C65.8668 33.4837 65.8966 33.4837 65.9263 33.4837H66.5063C66.7591 33.4837 66.9673 33.4688 67.1457 33.424C67.3242 33.3793 67.4729 33.3345 67.5918 33.2599C67.7108 33.1854 67.8 33.0959 67.8595 32.9915C67.919 32.8871 67.9487 32.7528 67.9487 32.6186C67.9487 32.4992 67.919 32.3799 67.8595 32.2904C67.8 32.2009 67.7257 32.1114 67.6365 32.0518C67.5472 31.9921 67.4283 31.9474 67.2944 31.9026C67.1606 31.8728 67.0119 31.8579 66.8632 31.8579C66.6252 31.8579 66.4022 31.8877 66.2237 31.9324C66.0453 31.9772 65.8668 32.0369 65.733 32.1114C65.5992 32.1711 65.4802 32.2308 65.391 32.2755C65.3018 32.3203 65.2423 32.3501 65.2125 32.3501C65.1977 32.3501 65.1679 32.3501 65.1531 32.3352C65.1382 32.3203 65.1233 32.3053 65.1084 32.2904C65.0936 32.2606 65.0787 32.2308 65.0787 32.186C65.0787 32.1413 65.0638 32.0965 65.0638 32.0219C65.0638 31.9175 65.0787 31.828 65.0936 31.7535C65.1084 31.6938 65.1382 31.6341 65.1977 31.5894C65.2423 31.5446 65.3315 31.485 65.4505 31.4253C65.5694 31.3656 65.7033 31.306 65.8668 31.2612C66.0304 31.2165 66.2089 31.1717 66.3873 31.1419C66.5806 31.1121 66.774 31.0972 66.9673 31.0972C67.2498 31.0972 67.5175 31.127 67.7703 31.1867C68.0082 31.2463 68.2164 31.3358 68.3949 31.4551C68.5733 31.5745 68.7071 31.7236 68.7964 31.9026C68.8856 32.0816 68.9451 32.2904 68.9451 32.5291C68.9451 32.6633 68.9153 32.7976 68.8707 32.9318C68.8261 33.066 68.7517 33.1704 68.6625 33.2898C68.5733 33.3942 68.4692 33.4986 68.3354 33.5732C68.2015 33.6627 68.0528 33.7223 67.9041 33.7671H67.8893C68.038 33.782 68.2015 33.8267 68.3502 33.9013C68.4989 33.9759 68.6328 34.0654 68.7517 34.1698C68.8707 34.2891 68.9599 34.4085 69.0343 34.5725C69.0938 34.7217 69.1235 34.8858 69.1235 35.0797Z" fill="black"/>
<path d="M75.2651 36.4972C75.2651 36.5271 75.2502 36.5569 75.2353 36.5718C75.2204 36.5867 75.1907 36.6166 75.161 36.6315C75.1312 36.6464 75.0717 36.6613 75.0123 36.6613C74.9528 36.6762 74.8636 36.6762 74.7743 36.6762C74.6702 36.6762 74.5959 36.6762 74.5364 36.6613C74.4769 36.6464 74.4174 36.6464 74.3877 36.6315C74.358 36.6166 74.3282 36.6017 74.3133 36.5718C74.2985 36.5569 74.2836 36.5271 74.2836 36.4972V34.245H71.5474V36.4972C71.5474 36.5271 71.5325 36.5569 71.5177 36.5718C71.5028 36.5867 71.473 36.6166 71.4433 36.6315C71.4136 36.6464 71.3541 36.6613 71.2946 36.6613C71.2351 36.6762 71.1459 36.6762 71.0567 36.6762C70.9674 36.6762 70.8782 36.6762 70.8187 36.6613C70.7593 36.6464 70.6998 36.6464 70.67 36.6315C70.6254 36.6166 70.6106 36.6017 70.5957 36.5718C70.5808 36.5569 70.5808 36.5271 70.5808 36.4972V31.3662C70.5808 31.3364 70.5808 31.3066 70.5957 31.2917C70.6106 31.2767 70.6403 31.2469 70.67 31.232C70.7146 31.2171 70.7593 31.2022 70.8187 31.2022C70.8782 31.2022 70.9674 31.1873 71.0567 31.1873C71.1608 31.1873 71.2351 31.1873 71.2946 31.2022C71.3541 31.2022 71.4136 31.2171 71.4433 31.232C71.473 31.2469 71.5028 31.2618 71.5177 31.2917C71.5325 31.3066 71.5474 31.3364 71.5474 31.3662V33.4544H74.2836V31.3662C74.2836 31.3364 74.2985 31.3066 74.3133 31.2917C74.3282 31.2767 74.358 31.2469 74.3877 31.232C74.4174 31.2171 74.4769 31.2022 74.5364 31.2022C74.5959 31.2022 74.6851 31.1873 74.7743 31.1873C74.8636 31.1873 74.9528 31.1873 75.0123 31.2022C75.0717 31.2022 75.1312 31.2171 75.161 31.232C75.1907 31.2469 75.2204 31.2618 75.2353 31.2917C75.2502 31.3066 75.2651 31.3364 75.2651 31.3662V36.4972Z" fill="black"/>
<path d="M81.6595 33.7079C81.6595 33.8571 81.6149 33.9615 81.5405 34.0212C81.4662 34.0808 81.3769 34.1107 81.2728 34.1107H77.7485C77.7485 34.394 77.7782 34.6476 77.8377 34.8863C77.8972 35.11 78.0013 35.3039 78.1351 35.468C78.269 35.6321 78.4623 35.7514 78.6854 35.8409C78.9084 35.9304 79.1761 35.9751 79.5032 35.9751C79.756 35.9751 79.9791 35.9602 80.1873 35.9155C80.3806 35.8707 80.5591 35.826 80.7078 35.7812C80.8565 35.7365 80.9754 35.6917 81.0647 35.647C81.1539 35.6022 81.2282 35.5873 81.2728 35.5873C81.3026 35.5873 81.3323 35.5873 81.3472 35.6022C81.3621 35.6171 81.3918 35.6321 81.3918 35.6619C81.4067 35.6917 81.4067 35.7215 81.4216 35.7663C81.4216 35.811 81.4364 35.8707 81.4364 35.9453C81.4364 35.99 81.4364 36.0348 81.4364 36.0795C81.4364 36.1094 81.4216 36.1541 81.4216 36.1839C81.4216 36.2138 81.4067 36.2436 81.3918 36.2585C81.3769 36.2883 81.3621 36.3033 81.3323 36.3182C81.3175 36.3331 81.2431 36.3778 81.139 36.4226C81.0349 36.4673 80.8862 36.5121 80.7226 36.5568C80.5591 36.6016 80.3509 36.6463 80.1278 36.6762C79.9047 36.706 79.6668 36.7358 79.414 36.7358C78.9679 36.7358 78.5813 36.6762 78.2541 36.5568C77.927 36.4375 77.6444 36.2585 77.4214 36.0348C77.1983 35.7961 77.0198 35.5127 76.9158 35.1548C76.7968 34.8117 76.7373 34.3941 76.7373 33.9317C76.7373 33.4842 76.7968 33.0964 76.9158 32.7384C77.0347 32.3804 77.2132 32.0821 77.4362 31.8435C77.6593 31.6048 77.927 31.4109 78.2541 31.2767C78.5664 31.1424 78.9233 31.0828 79.3248 31.0828C79.7412 31.0828 80.0981 31.1424 80.3955 31.2767C80.6929 31.4109 80.9308 31.575 81.1241 31.7987C81.3175 32.0225 81.4513 32.276 81.5405 32.5743C81.6297 32.8726 81.6744 33.1859 81.6744 33.514V33.7079H81.6595ZM80.678 33.4245C80.6929 32.9323 80.5739 32.5445 80.336 32.2611C80.0981 31.9777 79.7412 31.8435 79.2653 31.8435C79.0274 31.8435 78.8043 31.8882 78.6259 31.9777C78.4474 32.0672 78.2838 32.1865 78.1649 32.3208C78.0459 32.4699 77.9418 32.634 77.8823 32.8279C77.808 33.0218 77.7782 33.2157 77.7634 33.4245H80.678Z" fill="black"/>
<path d="M86.9979 35.7213C86.9979 35.7809 86.9979 35.8406 86.9979 35.8853C86.9979 35.9301 86.9831 35.9748 86.9831 36.0047C86.9682 36.0345 86.9682 36.0643 86.9533 36.0942C86.9385 36.124 86.9087 36.1538 86.8641 36.1986C86.8195 36.2433 86.7303 36.303 86.6113 36.3775C86.4923 36.4521 86.3585 36.5118 86.2098 36.5715C86.0611 36.6311 85.8975 36.6759 85.7191 36.7057C85.5406 36.7355 85.3622 36.7504 85.1837 36.7504C84.7971 36.7504 84.4551 36.6908 84.1576 36.5715C83.8602 36.4521 83.6074 36.2731 83.4141 36.0345C83.2208 35.7958 83.0572 35.5124 82.9531 35.1694C82.849 34.8263 82.7895 34.4385 82.7895 33.991C82.7895 33.4839 82.849 33.0513 82.9829 32.6934C83.1167 32.3354 83.2952 32.0371 83.5182 31.7984C83.7413 31.5598 84.0089 31.3957 84.3064 31.2764C84.6038 31.157 84.9309 31.1123 85.2878 31.1123C85.4514 31.1123 85.6298 31.1272 85.7785 31.1571C85.9421 31.1869 86.0908 31.2316 86.2247 31.2764C86.3585 31.3211 86.4775 31.3808 86.5816 31.4404C86.6857 31.5001 86.76 31.5598 86.8046 31.6045C86.8492 31.6493 86.879 31.6791 86.9087 31.7089C86.9236 31.7388 86.9385 31.7686 86.9533 31.7984C86.9682 31.8283 86.9682 31.873 86.9831 31.9178C86.9831 31.9625 86.9831 32.0222 86.9831 32.0818C86.9831 32.231 86.9682 32.3354 86.9236 32.3951C86.8938 32.4547 86.8492 32.4845 86.7897 32.4845C86.7303 32.4845 86.6559 32.4547 86.5816 32.3951C86.5072 32.3354 86.4031 32.2608 86.2841 32.1862C86.1652 32.1117 86.0165 32.0371 85.8529 31.9774C85.6893 31.9178 85.4811 31.8879 85.2581 31.8879C84.7822 31.8879 84.4253 32.0669 84.1725 32.41C83.9197 32.753 83.8008 33.2602 83.8008 33.9314C83.8008 34.2595 83.8305 34.5578 83.9048 34.7965C83.9643 35.0501 84.0684 35.2589 84.1874 35.4229C84.3212 35.587 84.4699 35.7213 84.6484 35.7958C84.8268 35.8704 85.0499 35.9152 85.2878 35.9152C85.5109 35.9152 85.7191 35.8853 85.8826 35.8108C86.0462 35.7362 86.1949 35.6616 86.3288 35.587C86.4477 35.5124 86.5518 35.4379 86.641 35.3633C86.7303 35.3036 86.7898 35.2589 86.8344 35.2589C86.8641 35.2589 86.879 35.2738 86.9087 35.2887C86.9236 35.3036 86.9385 35.3335 86.9533 35.3633C86.9682 35.3931 86.9831 35.4379 86.9831 35.4975C86.9979 35.5721 86.9979 35.6467 86.9979 35.7213Z" fill="black"/>
<path d="M90.7157 33.7672C90.7157 33.9163 90.7008 34.0207 90.6562 34.0804C90.6264 34.1401 90.567 34.1699 90.5075 34.1699H88.0241C87.9497 34.1699 87.9051 34.1401 87.8605 34.0804C87.8308 34.0207 87.801 33.9163 87.801 33.7821C87.801 33.6479 87.8159 33.5434 87.8605 33.4838C87.8902 33.4241 87.9497 33.3943 88.0241 33.3943H90.5075C90.5372 33.3943 90.567 33.3943 90.5967 33.4092C90.6264 33.4241 90.6413 33.439 90.6562 33.4689C90.6711 33.4987 90.6859 33.5434 90.7008 33.5882C90.7157 33.6329 90.7157 33.6926 90.7157 33.7672Z" fill="black"/>
<path d="M97.5561 38.3911C97.5561 38.4358 97.5115 38.4657 97.452 38.4806C97.3776 38.4955 97.2884 38.5104 97.1546 38.5104C97.0059 38.5104 96.9018 38.4955 96.8274 38.4806C96.7531 38.4507 96.7233 38.4209 96.7233 38.3911V36.6459H92.3365C92.2473 36.6459 92.1729 36.6161 92.1134 36.5564C92.0539 36.4968 92.0391 36.4222 92.0391 36.3029V31.3509C92.0391 31.321 92.0391 31.2912 92.0539 31.2763C92.0688 31.2614 92.0985 31.2315 92.1283 31.2166C92.1729 31.2017 92.2175 31.1868 92.277 31.1868C92.3365 31.1868 92.4257 31.1719 92.5149 31.1719C92.619 31.1719 92.6934 31.1719 92.7529 31.1868C92.8123 31.1868 92.8718 31.2017 92.9016 31.2166C92.9313 31.2315 92.961 31.2465 92.9759 31.2763C92.9908 31.2912 93.0057 31.321 93.0057 31.3509V35.8256H95.5783V31.3509C95.5783 31.321 95.5931 31.2912 95.608 31.2763C95.6229 31.2614 95.6526 31.2315 95.6824 31.2166C95.727 31.2017 95.7716 31.1868 95.8311 31.1868C95.8906 31.1868 95.9798 31.1719 96.069 31.1719C96.1731 31.1719 96.2474 31.1719 96.3069 31.1868C96.3664 31.1868 96.4259 31.2017 96.4556 31.2166C96.4854 31.2315 96.5151 31.2465 96.53 31.2763C96.5449 31.2912 96.5597 31.321 96.5597 31.3509V35.8256H97.3033C97.3925 35.8256 97.4668 35.8405 97.4966 35.8703C97.5263 35.9002 97.5412 35.9598 97.5412 36.0493V38.3911H97.5561Z" fill="black"/>
<path d="M103.103 33.7079C103.103 33.8571 103.058 33.9615 102.984 34.0212C102.91 34.0808 102.82 34.1107 102.716 34.1107H99.1919C99.1919 34.394 99.2216 34.6476 99.2811 34.8863C99.3406 35.11 99.4447 35.3039 99.5785 35.468C99.7123 35.6321 99.9057 35.7514 100.129 35.8409C100.352 35.9304 100.619 35.9751 100.947 35.9751C101.199 35.9751 101.422 35.9602 101.631 35.9155C101.824 35.8707 102.002 35.826 102.151 35.7812C102.3 35.7365 102.419 35.6917 102.508 35.647C102.597 35.6022 102.672 35.5873 102.716 35.5873C102.746 35.5873 102.776 35.5873 102.791 35.6022C102.805 35.6171 102.835 35.6321 102.835 35.6619C102.85 35.6917 102.85 35.7215 102.865 35.7663C102.865 35.811 102.88 35.8707 102.88 35.9453C102.88 35.99 102.88 36.0348 102.88 36.0795C102.88 36.1094 102.865 36.1541 102.865 36.1839C102.865 36.2138 102.85 36.2436 102.835 36.2585C102.82 36.2883 102.805 36.3033 102.776 36.3182C102.761 36.3331 102.686 36.3778 102.582 36.4226C102.478 36.4673 102.33 36.5121 102.166 36.5568C102.002 36.6016 101.794 36.6463 101.571 36.6762C101.348 36.706 101.11 36.7358 100.857 36.7358C100.411 36.7358 100.025 36.6762 99.6975 36.5568C99.3703 36.4375 99.0878 36.2585 98.8647 36.0348C98.6417 35.7961 98.4632 35.5127 98.3591 35.1548C98.2401 34.8117 98.1807 34.3941 98.1807 33.9317C98.1807 33.4842 98.2401 33.0964 98.3591 32.7384C98.4781 32.3804 98.6565 32.0821 98.8796 31.8435C99.1026 31.6048 99.3703 31.4109 99.6975 31.2767C100.01 31.1424 100.367 31.0828 100.768 31.0828C101.185 31.0828 101.541 31.1424 101.839 31.2767C102.136 31.4109 102.374 31.575 102.568 31.7987C102.761 32.0225 102.895 32.276 102.984 32.5743C103.073 32.8726 103.118 33.1859 103.118 33.514V33.7079H103.103ZM102.107 33.4245C102.121 32.9323 102.002 32.5445 101.764 32.2611C101.527 31.9777 101.17 31.8435 100.694 31.8435C100.456 31.8435 100.233 31.8882 100.054 31.9777C99.8759 32.0672 99.7123 32.1865 99.5934 32.3208C99.4744 32.4699 99.3703 32.634 99.3108 32.8279C99.2365 33.0218 99.2067 33.2157 99.1919 33.4245H102.107Z" fill="black"/>
<path d="M109.289 36.4972C109.289 36.5271 109.274 36.5569 109.259 36.5718C109.244 36.5867 109.215 36.6166 109.185 36.6315C109.155 36.6464 109.096 36.6613 109.036 36.6613C108.977 36.6762 108.887 36.6762 108.798 36.6762C108.694 36.6762 108.62 36.6762 108.56 36.6613C108.501 36.6464 108.441 36.6464 108.412 36.6315C108.382 36.6166 108.352 36.6017 108.337 36.5718C108.322 36.5569 108.308 36.5271 108.308 36.4972V34.245H105.571V36.4972C105.571 36.5271 105.556 36.5569 105.542 36.5718C105.527 36.5867 105.497 36.6166 105.467 36.6315C105.437 36.6464 105.378 36.6613 105.319 36.6613C105.259 36.6762 105.17 36.6762 105.081 36.6762C104.991 36.6762 104.902 36.6762 104.843 36.6613C104.783 36.6464 104.724 36.6464 104.694 36.6315C104.664 36.6166 104.634 36.6017 104.62 36.5718C104.605 36.5569 104.605 36.5271 104.605 36.4972V31.3662C104.605 31.3364 104.605 31.3066 104.62 31.2917C104.634 31.2767 104.664 31.2469 104.694 31.232C104.739 31.2171 104.783 31.2022 104.843 31.2022C104.902 31.2022 104.991 31.1873 105.081 31.1873C105.185 31.1873 105.259 31.1873 105.319 31.2022C105.378 31.2022 105.437 31.2171 105.467 31.232C105.497 31.2469 105.527 31.2618 105.542 31.2917C105.556 31.3066 105.571 31.3364 105.571 31.3662V33.4544H108.308V31.3662C108.308 31.3364 108.322 31.3066 108.337 31.2917C108.352 31.2767 108.382 31.2469 108.412 31.232C108.441 31.2171 108.501 31.2022 108.56 31.2022C108.62 31.2022 108.709 31.1873 108.798 31.1873C108.887 31.1873 108.977 31.1873 109.036 31.2022C109.096 31.2022 109.155 31.2171 109.185 31.232C109.215 31.2469 109.244 31.2618 109.259 31.2917C109.274 31.3066 109.289 31.3364 109.289 31.3662V36.4972Z" fill="black"/>
<path d="M114.851 31.6491C114.851 31.7237 114.851 31.7833 114.836 31.843C114.821 31.9027 114.821 31.9474 114.791 31.9772C114.776 32.0071 114.747 32.0369 114.732 32.0518C114.702 32.0667 114.672 32.0816 114.642 32.0816H113.036V36.5116C113.036 36.5414 113.022 36.5713 113.007 36.5862C112.992 36.6011 112.962 36.6309 112.932 36.6458C112.903 36.6608 112.843 36.6757 112.784 36.6757C112.724 36.6906 112.635 36.6906 112.546 36.6906C112.456 36.6906 112.367 36.6906 112.308 36.6757C112.248 36.6608 112.189 36.6608 112.159 36.6458C112.114 36.6309 112.1 36.616 112.085 36.5862C112.07 36.5713 112.07 36.5414 112.07 36.5116V32.0816H110.464C110.434 32.0816 110.404 32.0667 110.375 32.0518C110.345 32.0369 110.33 32.0071 110.315 31.9772C110.3 31.9474 110.285 31.9027 110.27 31.843C110.256 31.7833 110.256 31.7237 110.256 31.6491C110.256 31.5745 110.256 31.5148 110.27 31.4701C110.285 31.4104 110.3 31.3657 110.315 31.3359C110.33 31.306 110.36 31.2762 110.375 31.2613C110.404 31.2464 110.419 31.2314 110.464 31.2314H114.657C114.687 31.2314 114.717 31.2464 114.747 31.2613C114.776 31.2762 114.791 31.306 114.806 31.3359C114.821 31.3657 114.836 31.4104 114.851 31.4701C114.851 31.5148 114.851 31.5745 114.851 31.6491Z" fill="black"/>
<path d="M120.754 33.8568C120.754 34.3043 120.71 34.707 120.606 35.065C120.501 35.4229 120.353 35.7213 120.159 35.9748C119.966 36.2284 119.713 36.4223 119.431 36.5565C119.148 36.6908 118.806 36.7654 118.434 36.7654C118.271 36.7654 118.122 36.7504 117.988 36.7206C117.854 36.6908 117.721 36.646 117.587 36.5715C117.453 36.5118 117.334 36.4223 117.2 36.3328C117.066 36.2284 116.932 36.124 116.799 35.9897V38.5552C116.799 38.5851 116.784 38.6149 116.769 38.6298C116.754 38.6597 116.724 38.6746 116.695 38.6895C116.665 38.7044 116.605 38.7193 116.546 38.7193C116.486 38.7342 116.397 38.7342 116.308 38.7342C116.219 38.7342 116.129 38.7342 116.07 38.7193C116.01 38.7044 115.951 38.7044 115.921 38.6895C115.877 38.6746 115.862 38.6597 115.847 38.6298C115.832 38.6 115.832 38.5851 115.832 38.5552V31.3808C115.832 31.351 115.832 31.3211 115.847 31.2913C115.862 31.2764 115.877 31.2465 115.921 31.2316C115.951 31.2167 115.996 31.2018 116.055 31.2018C116.115 31.2018 116.174 31.1869 116.263 31.1869C116.353 31.1869 116.412 31.1869 116.471 31.2018C116.531 31.2018 116.576 31.2167 116.605 31.2316C116.635 31.2465 116.665 31.2615 116.68 31.2913C116.695 31.3062 116.695 31.336 116.695 31.3808V32.0669C116.858 31.9028 117.007 31.7686 117.17 31.6493C117.319 31.5299 117.468 31.4404 117.631 31.351C117.78 31.2764 117.944 31.2167 118.107 31.172C118.271 31.1272 118.434 31.1123 118.613 31.1123C118.999 31.1123 119.327 31.1869 119.609 31.336C119.877 31.4852 120.1 31.6791 120.278 31.9327C120.457 32.1862 120.576 32.4696 120.65 32.8127C120.71 33.1259 120.754 33.4839 120.754 33.8568ZM119.743 33.9612C119.743 33.6927 119.728 33.4392 119.684 33.2005C119.639 32.9619 119.565 32.7381 119.46 32.5442C119.356 32.3503 119.223 32.2012 119.044 32.0818C118.866 31.9625 118.657 31.9178 118.405 31.9178C118.271 31.9178 118.152 31.9327 118.033 31.9774C117.914 32.0072 117.78 32.0669 117.661 32.1415C117.527 32.2161 117.393 32.3205 117.26 32.4547C117.126 32.589 116.977 32.7381 116.813 32.932V34.9755C117.081 35.2887 117.349 35.5274 117.587 35.7063C117.825 35.8704 118.092 35.9599 118.36 35.9599C118.613 35.9599 118.821 35.9002 118.999 35.7958C119.178 35.6765 119.327 35.5274 119.431 35.3335C119.535 35.1395 119.624 34.9307 119.669 34.6921C119.713 34.4385 119.743 34.1999 119.743 33.9612Z" fill="black"/>
<path d="M37.058 19.9093C36.2848 19.5514 34.9167 18.7161 34.307 18.4476C33.5634 18.1045 31.8236 16.8814 30.8124 16.8069C29.8012 16.7323 28.3884 17.0903 27.3475 17.4333C26.3066 17.7764 23.4217 19.089 21.9346 18.9696C20.4475 18.8503 18.0682 17.5526 18.0682 17.5526C18.0682 17.5526 18.1128 18.2686 18.2467 19.1188C18.7671 22.4897 21.0423 22.5792 24.0016 22.4748C25.3846 22.4301 28.8494 20.3866 28.8494 20.3866C29.9499 19.6707 22.0982 27.4418 12.2538 25.1149C4.92258 23.3847 2.78121 18.4923 2.91505 14.7037C2.95966 13.4807 3.19759 11.7654 3.55448 10.1992C3.64371 9.81139 3.64371 9.42358 3.64371 9.42358C3.64371 9.42358 -0.0442104 14.8678 0.000401506 20.2076C0.0450134 26.2783 3.04888 30.6636 7.33162 32.1551C10.2611 33.1694 14.0829 33.9301 17.637 32.7816C22.1874 31.3049 25.9497 27.218 27.2137 26.0248C29.2658 24.1006 30.7083 22.6687 30.7083 22.6687C30.7083 22.6687 20.5962 34.2732 14.871 34.0047C9.14584 33.7362 2.67712 30.753 2.67712 30.753C2.67712 30.753 2.82582 30.932 2.94479 31.3049C4.2534 35.7498 10.2017 41.2985 14.6182 41.194C21.7264 41.0449 27.0947 37.1071 31.2436 27.7699C32.6117 24.6973 35.8089 21.4158 36.9242 21.3562C37.7123 21.3114 38.0097 20.3568 37.058 19.9093Z" fill="black"/>
<path d="M16.5961 19.5965C16.6258 19.3728 16.1351 16.4642 17.4586 13.1082C21.1316 3.78584 30.7529 3.2787 37.876 5.53098C40.5973 6.39609 42.129 7.5446 42.129 7.5446C41.9059 7.1717 40.2255 4.91943 37.4447 3.21904C29.37 -1.73297 17.8304 3.11463 15.8674 11.5569C14.9603 15.4798 16.373 18.9402 16.5961 19.5965Z" fill="black"/>
<path d="M23.7042 0.175933C14.0086 1.32444 7.58446 11.9444 12.2538 20.1332C13.0717 21.5651 14.306 22.7136 15.451 23.3699C14.4993 22.982 13.4732 22.4003 12.581 21.5501C7.40601 16.6429 9.59199 7.9321 14.1127 3.94961C15.8377 2.4282 16.2094 1.10071 16.2094 1.10071C15.793 1.08579 14.6034 0.787477 12.1051 1.98073C3.83706 5.91848 0.996769 17.6124 8.67001 23.34C11.8969 25.7415 18.2764 24.1455 18.9456 24.2797C18.9307 24.2648 18.8861 24.2499 18.7969 24.235C18.8118 24.235 18.8267 24.235 18.8267 24.235C18.7077 24.056 17.1314 22.7136 15.8079 19.447C12.7743 11.9892 18.0534 4.5164 24.3288 2.0404C26.6784 1.11562 27.7639 0.22068 27.7639 0.22068C27.3773 0.0715228 26.6337 -0.167129 23.7042 0.175933Z" fill="black"/>
<path d="M43.0657 8.64771C43.0657 8.64771 44.2107 13.5251 44.4487 15.8072C45.2368 23.1159 42.5452 28.053 37.0133 29.7833C33.8459 30.7826 32.0019 30.723 32.0019 30.723L32.4035 31.7223L30.4257 31.2301L30.5298 32.4681L29.3847 31.7223L29.1319 33.4674L28.7899 32.9156C28.7899 32.9156 27.0054 36.4506 24.7302 38.1361C22.455 39.8215 16.4473 42.4616 16.4473 42.4616C16.4473 42.4616 19.1686 43.103 21.2059 43.5057C23.2431 43.9084 28.8345 44.4007 30.8272 43.461C32.805 42.5213 33.4593 41.5219 33.4593 41.5219C33.4593 41.5219 36.0914 42.4616 38.322 40.1348C40.5526 37.793 40.5526 36.555 40.5526 36.555C40.5526 36.555 43.1252 36.4058 44.865 33.1244C46.6049 29.8429 46.5454 27.0089 46.5454 27.0089C46.5454 27.0089 48.3299 24.1302 47.3336 17.5076C46.3372 10.8851 43.0657 8.64771 43.0657 8.64771Z" fill="url(#paint11_linear)"/>
<defs>
<linearGradient id="paint0_linear" x1="63.2943" y1="9.44629" x2="63.2943" y2="23.9077" gradientUnits="userSpaceOnUse">
<stop stop-color="#CA2E34"/>
<stop offset="1" stop-color="#AD2128"/>
</linearGradient>
<linearGradient id="paint1_linear" x1="78.1573" y1="12.0498" x2="78.1573" y2="23.6095" gradientUnits="userSpaceOnUse">
<stop stop-color="#CA2E34"/>
<stop offset="1" stop-color="#AD2128"/>
</linearGradient>
<linearGradient id="paint2_linear" x1="91.3403" y1="11.7812" x2="91.3403" y2="23.5945" gradientUnits="userSpaceOnUse">
<stop stop-color="#CA2E34"/>
<stop offset="1" stop-color="#AD2128"/>
</linearGradient>
<linearGradient id="paint3_linear" x1="105.11" y1="12.0349" x2="105.11" y2="23.5946" gradientUnits="userSpaceOnUse">
<stop stop-color="#CA2E34"/>
<stop offset="1" stop-color="#AD2128"/>
</linearGradient>
<linearGradient id="paint4_linear" x1="115.364" y1="12.0645" x2="115.364" y2="23.6092" gradientUnits="userSpaceOnUse">
<stop stop-color="#CA2E34"/>
<stop offset="1" stop-color="#AD2128"/>
</linearGradient>
<linearGradient id="paint5_linear" x1="124.866" y1="12.0498" x2="124.866" y2="23.6095" gradientUnits="userSpaceOnUse">
<stop stop-color="#CA2E34"/>
<stop offset="1" stop-color="#AD2128"/>
</linearGradient>
<linearGradient id="paint6_linear" x1="137.335" y1="11.7812" x2="137.335" y2="23.9077" gradientUnits="userSpaceOnUse">
<stop stop-color="#CA2E34"/>
<stop offset="1" stop-color="#AD2128"/>
</linearGradient>
<linearGradient id="paint7_linear" x1="149.789" y1="12.0498" x2="149.789" y2="23.5796" gradientUnits="userSpaceOnUse">
<stop stop-color="#CA2E34"/>
<stop offset="1" stop-color="#AD2128"/>
</linearGradient>
<linearGradient id="paint8_linear" x1="163.121" y1="12.0349" x2="163.121" y2="23.5946" gradientUnits="userSpaceOnUse">
<stop stop-color="#CA2E34"/>
<stop offset="1" stop-color="#AD2128"/>
</linearGradient>
<linearGradient id="paint9_linear" x1="176.809" y1="12.0498" x2="176.809" y2="23.6095" gradientUnits="userSpaceOnUse">
<stop stop-color="#CA2E34"/>
<stop offset="1" stop-color="#AD2128"/>
</linearGradient>
<linearGradient id="paint10_linear" x1="192.133" y1="5.36743" x2="192.133" y2="23.6093" gradientUnits="userSpaceOnUse">
<stop stop-color="#CA2E34"/>
<stop offset="1" stop-color="#AD2128"/>
</linearGradient>
<linearGradient id="paint11_linear" x1="32.0416" y1="8.64771" x2="32.0416" y2="44" gradientUnits="userSpaceOnUse">
<stop stop-color="#CA2E34"/>
<stop offset="1" stop-color="#AD2128"/>
</linearGradient>
</defs>
</svg>
