<svg xmlns="http://www.w3.org/2000/svg" xmlns:xlink="http://www.w3.org/1999/xlink" width="336.7" height="73.7" viewBox="0 0 336.7 73.7"><defs><linearGradient id="a" x1="109.5" x2="109.5" y1="17.4" y2="41.6" gradientUnits="userSpaceOnUse"><stop offset="0" stop-color="#c44f47"/><stop offset="1" stop-color="#a24947"/></linearGradient><linearGradient id="b" x1="134.5" x2="134.5" y1="21.7" y2="41.1" xlink:href="#a"/><linearGradient id="c" x1="156.7" x2="156.7" y1="21.3" y2="41.1" xlink:href="#a"/><linearGradient id="d" x1="179.9" x2="179.9" y1="21.7" y2="41.1" xlink:href="#a"/><linearGradient id="e" x1="197.1" x2="197.1" y1="21.7" y2="41.1" xlink:href="#a"/><linearGradient id="f" x1="213" x2="213" y1="21.7" y2="41.1" xlink:href="#a"/><linearGradient id="g" x1="234" x2="234" y1="21.3" y2="41.5" xlink:href="#a"/><linearGradient id="h" x1="254.9" x2="254.9" y1="21.7" y2="41.1" xlink:href="#a"/><linearGradient id="i" x1="277.4" x2="277.4" y1="21.7" y2="41.1" xlink:href="#a"/><linearGradient id="j" x1="300.4" x2="300.4" y1="21.7" y2="41.1" xlink:href="#a"/><linearGradient id="k" x1="326.1" x2="326.1" y1="10.5" y2="15.4" xlink:href="#a"/><linearGradient id="l" x1="326.1" x2="326.1" y1="17.7" y2="41.1" xlink:href="#a"/><linearGradient id="m" x1="30.4" x2="82.8" y1="45.7" y2="45.7" xlink:href="#a"/></defs><path fill="url(#a)" d="M109.4 17.4a11.3 11.3 0 0 0-8.7 3.2 11.7 11.7 0 0 0-3.6 8.7 12.4 12.4 0 0 0 2.7 8q3.5 4.3 9.8 4.3a11.6 11.6 0 0 0 9.8-4.5 12.5 12.5 0 0 0 2.6-7.8 11.6 11.6 0 0 0-12.6-12zm5.5 18.5a7 7 0 0 1-2.4 3.6 5 5 0 0 1-3 .8 4.8 4.8 0 0 1-4-2q-2.2-2.8-2.2-8.8a17.5 17.5 0 0 1 1.4-7.8 5.3 5.3 0 0 1 4.9-3.2 5.2 5.2 0 0 1 3 1 6.8 6.8 0 0 1 2.2 3.2 21 21 0 0 1 .9 6.9 19.6 19.6 0 0 1-.8 6.3z" transform="translate(-2.7 -1.6)"/><path fill="url(#b)" d="M135.6 22.2a2.5 2.5 0 0 1 1.3.3 1.2 1.2 0 0 1 .5.7 8.1 8.1 0 0 1 .1 1.8v6a8.2 8.2 0 0 1-3.7 1 2.7 2.7 0 0 1-1.4-.4 1.5 1.5 0 0 1-.7-.8 4.6 4.6 0 0 1-.2-1.3v-5.2a2 2 0 0 1 .6-1.6 2.4 2.4 0 0 1 1.4-.4v-.6h-9.3v.5a3.5 3.5 0 0 1 2 .5q.7.5.7 2v4.6a6.3 6.3 0 0 0 .4 2.7 3 3 0 0 0 1.5 1.4 6.1 6.1 0 0 0 2.6.5 13.6 13.6 0 0 0 6.1-1.8v6.3a3 3 0 0 1-.2 1.3 1.2 1.2 0 0 1-.7.6 6.6 6.6 0 0 1-1.8.2v.6h10v-.6h-.6a2.8 2.8 0 0 1-1.3-.2 1.2 1.2 0 0 1-.6-.7 5.6 5.6 0 0 1-.1-1.5V24.4a2.6 2.6 0 0 1 .4-1.8 4 4 0 0 1 2.3-.4v-.5h-9.4z" transform="translate(-2.7 -1.6)"/><path fill="url(#c)" d="M164 37.2l-7-15.9h-.3l-6.9 15.5a11.5 11.5 0 0 1-1.7 2.9 2.9 2.9 0 0 1-1.7.8v.6h6.5v-.6a5.5 5.5 0 0 1-2-.3 1.3 1.3 0 0 1-.6-1.2 4.2 4.2 0 0 1 .4-1.6l.8-1.9h6.9l1 2.5.4 1a1.8 1.8 0 0 1 .1.6.8.8 0 0 1-.3.6 3 3 0 0 1-1.6.3h-.4v.6h9.4v-.6a2.2 2.2 0 0 1-1.4-.5 9.7 9.7 0 0 1-1.6-2.8zm-12-2.7l3-6.7 2.9 6.7z" transform="translate(-2.7 -1.6)"/><path fill="url(#d)" d="M187 37.6l-6.8-8.5 5.7-4.5a22.8 22.8 0 0 1 2.6-2 4.3 4.3 0 0 1 1.6-.4v-.5h-7.6v.5a5 5 0 0 1 1.6.2 1 1 0 0 1 .6.9q0 .7-1.5 2L176 31v-6a5.6 5.6 0 0 1 .2-1.8 1.4 1.4 0 0 1 .6-.7 3.1 3.1 0 0 1 1.5-.3v-.5h-9.7v.5h.6a2.6 2.6 0 0 1 1.3.3 1.4 1.4 0 0 1 .7.7 6.4 6.4 0 0 1 .1 1.8v12.8a5.9 5.9 0 0 1-.1 1.8 1.3 1.3 0 0 1-.6.6 2.7 2.7 0 0 1-1.4.3h-.6v.6h9.8v-.6a3.4 3.4 0 0 1-1.6-.2 1.4 1.4 0 0 1-.6-.7 6 6 0 0 1-.2-1.8v-5.3l.7-.6 4.4 5.6a5.2 5.2 0 0 1 1.3 2.2.7.7 0 0 1-.2.5 2.7 2.7 0 0 1-1.3.3v.6H191v-.6a3 3 0 0 1-1.6-.4 11 11 0 0 1-2.4-2.5z" transform="translate(-2.7 -1.6)"/><path fill="url(#e)" d="M192 22.2h.6a2.6 2.6 0 0 1 1.3.3 1.4 1.4 0 0 1 .7.7 6.4 6.4 0 0 1 .1 1.8v12.8a5.9 5.9 0 0 1-.1 1.8 1.3 1.3 0 0 1-.6.6 2.7 2.7 0 0 1-1.4.3h-.6v.6h10.1v-.6h-.6a2.6 2.6 0 0 1-1.3-.2 1.5 1.5 0 0 1-.6-.7 6.1 6.1 0 0 1-.2-1.8V25a5.9 5.9 0 0 1 .2-1.8 1.4 1.4 0 0 1 .6-.7 2.7 2.7 0 0 1 1.3-.3h.7v-.5H192z" transform="translate(-2.7 -1.6)"/><path fill="url(#f)" d="M220.4 32.4a9.9 9.9 0 0 0-3.9-1.6 7.3 7.3 0 0 0 3.6-1.7 3.6 3.6 0 0 0 1-2.5 4.4 4.4 0 0 0-.8-2.5 5 5 0 0 0-2.2-1.8 13.2 13.2 0 0 0-4.7-.6H204v.5a4.6 4.6 0 0 1 1.8.3 1.4 1.4 0 0 1 .7.6 6 6 0 0 1 .2 2v12.6a6 6 0 0 1-.2 2 1.5 1.5 0 0 1-.7.6 4.5 4.5 0 0 1-1.8.3v.5h9.9q4 0 6.2-1.7a4.5 4.5 0 0 0 1.8-3.7 4.1 4.1 0 0 0-1.6-3.3zm-9-9.6a7.7 7.7 0 0 1 3 .4 3.2 3.2 0 0 1 1.4 1.3 4 4 0 0 1 .5 2 4 4 0 0 1-.5 2.2 3.4 3.4 0 0 1-1.5 1.3 7.4 7.4 0 0 1-3 .5zm5 15.2a3.5 3.5 0 0 1-1.4 1.5 4.5 4.5 0 0 1-2.1.5 1.4 1.4 0 0 1-1.6-1.5v-7a9.4 9.4 0 0 1 3.3.4 3.4 3.4 0 0 1 1.7 1.6 4.8 4.8 0 0 1 .7 2.4 4.5 4.5 0 0 1-.6 2.1z" transform="translate(-2.7 -1.6)"/><path fill="url(#g)" d="M242.2 22.3a1 1 0 0 1-.8.4 6.6 6.6 0 0 1-1.6-.5 11.9 11.9 0 0 0-4.4-1 10.6 10.6 0 0 0-5.2 1.4 10.6 10.6 0 0 0-5.4 9.1 10 10 0 0 0 1.3 5 8.8 8.8 0 0 0 3.8 3.6 11.8 11.8 0 0 0 5.5 1.3 10.3 10.3 0 0 0 4-.8 10.6 10.6 0 0 0 3.5-2.5v-1.7a11.6 11.6 0 0 1-3.2 2.8 7 7 0 0 1-3.4.8 5.7 5.7 0 0 1-3.6-1.1 6.3 6.3 0 0 1-2-3.2 16 16 0 0 1-.7-4.8 12.3 12.3 0 0 1 .9-4.8 6 6 0 0 1 2.2-2.7 5.8 5.8 0 0 1 3.3-1 6 6 0 0 1 3.9 1.4 7.2 7.2 0 0 1 2.3 4h.6v-6.7h-.6a1.8 1.8 0 0 1-.4 1z" transform="translate(-2.7 -1.6)"/><path fill="url(#h)" d="M262 32q-1.9-1.5-6-1.5h-2.6V25a4.8 4.8 0 0 1 .2-1.8 1.5 1.5 0 0 1 .7-.6 4.5 4.5 0 0 1 1.8-.3v-.5h-10v.5a3.5 3.5 0 0 1 2.2.5 4.5 4.5 0 0 1 .4 2.5v12.9a2.7 2.7 0 0 1-.5 2 4 4 0 0 1-2.3.5v.5h10.4a11.6 11.6 0 0 0 4.2-.6 5.8 5.8 0 0 0 2.4-1.8 4.5 4.5 0 0 0 1-2.8A4.7 4.7 0 0 0 262 32zm-4.2 7a3 3 0 0 1-2.6 1.1 1.6 1.6 0 0 1-1.4-.5 3.6 3.6 0 0 1-.4-2v-5.8a9.8 9.8 0 0 1 2.7.3 3.3 3.3 0 0 1 1.7 1.3 4.7 4.7 0 0 1 .8 2.8 4.5 4.5 0 0 1-.8 2.8z" transform="translate(-2.7 -1.6)"/><path fill="url(#i)" d="M284.5 37.6l-6.8-8.5 5.7-4.5a22.8 22.8 0 0 1 2.6-2 4.3 4.3 0 0 1 1.6-.4v-.5h-7.5v.5a5 5 0 0 1 1.5.2 1 1 0 0 1 .6.9q0 .7-1.5 2l-7.1 5.7v-6a5.6 5.6 0 0 1 .1-1.8 1.4 1.4 0 0 1 .6-.7 3.1 3.1 0 0 1 1.5-.3v-.5h-9.6v.5h.6a2.6 2.6 0 0 1 1.3.3 1.4 1.4 0 0 1 .6.7 6.4 6.4 0 0 1 .2 1.8v12.8a5.9 5.9 0 0 1-.2 1.8 1.3 1.3 0 0 1-.5.6 2.7 2.7 0 0 1-1.4.3h-.6v.6h9.7v-.6a3.4 3.4 0 0 1-1.5-.2 1.4 1.4 0 0 1-.7-.7 6 6 0 0 1-.2-1.8v-5.3l.8-.6 4.4 5.6a5.2 5.2 0 0 1 1.3 2.2.7.7 0 0 1-.3.5 2.7 2.7 0 0 1-1.2.3v.6h10.1v-.6a3 3 0 0 1-1.6-.4 11 11 0 0 1-2.5-2.5z" transform="translate(-2.7 -1.6)"/><path fill="url(#j)" d="M301 22.2h.6q1.4 0 1.8.6a4.3 4.3 0 0 1 .4 2.1l-6.9 10.7V25a3.8 3.8 0 0 1 .5-2.2 2.2 2.2 0 0 1 1.7-.6h.7v-.5h-10.4v.5h.6q1.5 0 1.9.5a4.7 4.7 0 0 1 .3 2.3v12.8a4 4 0 0 1-.4 2.2 2.3 2.3 0 0 1-1.8.6h-.7v.5h10.5v-.5h-.7q-1.5 0-1.8-.6a4.3 4.3 0 0 1-.4-2l6.9-10.8v10.6a4 4 0 0 1-.5 2.2 2.2 2.2 0 0 1-1.7.6h-.7v.5h10.4v-.5h-.7a2.3 2.3 0 0 1-1.7-.5 3.9 3.9 0 0 1-.5-2.3V25a3.9 3.9 0 0 1 .5-2.3 2.3 2.3 0 0 1 1.7-.5h.7v-.5H301z" transform="translate(-2.7 -1.6)"/><path fill="url(#k)" d="M321 14.5a10.5 10.5 0 0 0 5.1 1 11.3 11.3 0 0 0 5.2-1 2.6 2.6 0 0 0 1.6-2.2 1.6 1.6 0 0 0-.5-1.3 1.8 1.8 0 0 0-1.2-.5q-1.4 0-2.2 1.7a3.6 3.6 0 0 1-1 1.5 3.5 3.5 0 0 1-2 .4 3.2 3.2 0 0 1-1.7-.4 2.9 2.9 0 0 1-1-1.4q-.7-1.8-2.1-1.8a1.7 1.7 0 0 0-1.3.5 1.5 1.5 0 0 0-.5 1.2 2.7 2.7 0 0 0 1.6 2.3z" transform="translate(-2.7 -1.6)"/><path fill="url(#l)" d="M336.4 19a2.8 2.8 0 0 1 2.1-.7h.9v-.6h-12.6v.6h.8q1.8 0 2.2.7a5.2 5.2 0 0 1 .5 2.5l-8.3 13V21.7a4.6 4.6 0 0 1 .5-2.7 2.6 2.6 0 0 1 2.1-.7h.9v-.6h-12.6v.6h.8q1.9 0 2.3.7a5.7 5.7 0 0 1 .4 2.7V37a4.8 4.8 0 0 1-.5 2.7 2.7 2.7 0 0 1-2.2.6h-.8v.7h12.6v-.7h-.8q-1.9 0-2.3-.7a5.2 5.2 0 0 1-.4-2.4l8.2-13v12.8a4.9 4.9 0 0 1-.5 2.7 2.7 2.7 0 0 1-2.1.6h-.8v.7h12.5v-.7h-.8a2.8 2.8 0 0 1-2.1-.6 4.7 4.7 0 0 1-.5-2.7V21.7a4.7 4.7 0 0 1 .5-2.8z" transform="translate(-2.7 -1.6)"/><path fill="#231300" d="M103.3 56.6a6 6 0 0 1-.3 2 4.4 4.4 0 0 1-1 1.6 4 4 0 0 1-1.4 1 5.4 5.4 0 0 1-3.8 0 3.2 3.2 0 0 1-1.3-1 4.5 4.5 0 0 1-.8-1.8 10.3 10.3 0 0 1-.3-2.4 18.8 18.8 0 0 1 .2-2.2 12.6 12.6 0 0 1 .3-1.8 6.5 6.5 0 0 1 .5-1.3 4 4 0 0 1 .6-.9 3.5 3.5 0 0 1 .6-.5 5 5 0 0 1 .7-.4 5.2 5.2 0 0 1 .8-.3l1-.2 3.2-.5h.3a.2.2 0 0 1 .1 0 .5.5 0 0 1 .1.3 4 4 0 0 1 0 .5 2.3 2.3 0 0 1 0 .3.6.6 0 0 1 0 .2.3.3 0 0 1-.2.1 1 1 0 0 1-.3.1l-3 .5-.8.1a5 5 0 0 0-.6.2 2.7 2.7 0 0 0-.4.2 2.4 2.4 0 0 0-.4.4 2.3 2.3 0 0 0-.4.5 3.4 3.4 0 0 0-.3.6 6.6 6.6 0 0 0-.2.9l-.1 1a5.9 5.9 0 0 1 .7-.6 4.6 4.6 0 0 1 .7-.5 4.2 4.2 0 0 1 1-.3 4.5 4.5 0 0 1 1 0 4.3 4.3 0 0 1 1.6.2 3.1 3.1 0 0 1 1.2.9 3.8 3.8 0 0 1 .7 1.4 6.3 6.3 0 0 1 .3 1.8zm-1.7.2a5.7 5.7 0 0 0-.2-1.2 3.1 3.1 0 0 0-.4-1 2 2 0 0 0-.7-.7 2.3 2.3 0 0 0-1.2-.3 2.8 2.8 0 0 0-1.5.4 4.8 4.8 0 0 0-.7.5l-.7.7v.8a10.8 10.8 0 0 0 .1 1.8 3.9 3.9 0 0 0 .5 1.3 2 2 0 0 0 .8.8 3 3 0 0 0 2.4 0 2.4 2.4 0 0 0 .9-.7 3 3 0 0 0 .5-1 5.1 5.1 0 0 0 .1-1.4zM107.6 49.6a1 1 0 0 1-.2.7 1.2 1.2 0 0 1-.8.2 1.2 1.2 0 0 1-.8-.2 1 1 0 0 1-.2-.7 1 1 0 0 1 .2-.8 1.2 1.2 0 0 1 .8-.2 1.2 1.2 0 0 1 .8.2 1 1 0 0 1 .2.8zm-.2 11.5a.2.2 0 0 1 0 .1.3.3 0 0 1-.1.1 1 1 0 0 1-.2 0h-.9a1 1 0 0 1-.2 0 .3.3 0 0 1-.1 0 .2.2 0 0 1 0-.2v-8.6a.2.2 0 0 1 0-.1.3.3 0 0 1 0-.1 1 1 0 0 1 .3-.1h.9a1 1 0 0 1 .2 0 .3.3 0 0 1 .1.2zM116.7 58.7a2.5 2.5 0 0 1-.3 1.2 2.5 2.5 0 0 1-.7.8 3.6 3.6 0 0 1-1.3.6 6.6 6.6 0 0 1-1.6.2 6.3 6.3 0 0 1-1 0 6.6 6.6 0 0 1-.9-.3 3.8 3.8 0 0 1-.6-.2 2.1 2.1 0 0 1-.3-.2.8.8 0 0 1-.2-.2.5.5 0 0 1 0-.1 2 2 0 0 1 0-.2 2.5 2.5 0 0 1 0-.3 1.4 1.4 0 0 1 0-.3.8.8 0 0 1 0-.2.2.2 0 0 1 .2 0 .6.6 0 0 1 .3 0 4.5 4.5 0 0 0 .5.4 5 5 0 0 0 .8.2 4.6 4.6 0 0 0 1.2.2 3.7 3.7 0 0 0 1-.1 2 2 0 0 0 .6-.3 1.4 1.4 0 0 0 .4-.5 1.5 1.5 0 0 0 .2-.7 1.2 1.2 0 0 0-.2-.6 1.2 1.2 0 0 0-.4-.5 2.8 2.8 0 0 0-.8-.2 6 6 0 0 0-1.3-.2h-1a.3.3 0 0 1-.1 0 .3.3 0 0 1-.1 0 .5.5 0 0 1 0-.3 2.3 2.3 0 0 1 0-.2 1.6 1.6 0 0 1 0-.3.5.5 0 0 1 0-.2.3.3 0 0 1 .2 0h1a5.4 5.4 0 0 0 1.1-.2 2.4 2.4 0 0 0 .8-.3 1.2 1.2 0 0 0 .4-.4 1.3 1.3 0 0 0 .2-.7 1 1 0 0 0-.2-.5 1.2 1.2 0 0 0-.3-.4 1.8 1.8 0 0 0-.6-.2 3.1 3.1 0 0 0-.7-.1 4 4 0 0 0-1.1.1 5.7 5.7 0 0 0-.9.3l-.5.3a.8.8 0 0 1-.3.1h-.1a.2.2 0 0 1-.1 0 .5.5 0 0 1 0-.2 2 2 0 0 1 0-.3 1.7 1.7 0 0 1 0-.4.6.6 0 0 1 .1-.3 1.9 1.9 0 0 1 .4-.3 4.2 4.2 0 0 1 .7-.3 7.7 7.7 0 0 1 1-.2 5.8 5.8 0 0 1 1 0 5.7 5.7 0 0 1 1.3.1 3.1 3.1 0 0 1 1 .5 2 2 0 0 1 .8 1.6 2 2 0 0 1 0 .7 2 2 0 0 1-.4.6 2.4 2.4 0 0 1-.6.4 2.8 2.8 0 0 1-.7.4 2.4 2.4 0 0 1 .7.2 2.6 2.6 0 0 1 .7.4 2.2 2.2 0 0 1 .5.7 2 2 0 0 1 .2.9zM127 61a.2.2 0 0 1 0 .2.3.3 0 0 1 0 .1 1 1 0 0 1-.3 0h-.8a1 1 0 0 1-.3 0 .3.3 0 0 1-.1 0 .2.2 0 0 1 0-.2v-3.8h-4.6v3.8a.2.2 0 0 1 0 .1.3.3 0 0 1-.1.1 1 1 0 0 1-.3 0h-.8a1 1 0 0 1-.3 0 .3.3 0 0 1-.1 0 .2.2 0 0 1 0-.2v-8.6a.2.2 0 0 1 0-.2.3.3 0 0 1 .1 0 .8.8 0 0 1 .3-.1h.8a.8.8 0 0 1 .3 0 .3.3 0 0 1 0 .1.2.2 0 0 1 0 .2V56h4.7v-3.5a.2.2 0 0 1 0-.2.3.3 0 0 1 .1 0 .8.8 0 0 1 .3-.1h.8a.8.8 0 0 1 .2 0 .3.3 0 0 1 .1.1.2.2 0 0 1 0 .2zM137.8 56.4a.6.6 0 0 1-.2.5.7.7 0 0 1-.5.2h-5.9a5 5 0 0 0 .1 1.3 2.4 2.4 0 0 0 .5 1 2.3 2.3 0 0 0 1 .6 3.8 3.8 0 0 0 1.3.3 5.9 5.9 0 0 0 1.2-.1 7 7 0 0 0 .8-.3l.6-.2a1 1 0 0 1 .4 0 .2.2 0 0 1 .1 0 .2.2 0 0 1 .1 0 .7.7 0 0 1 0 .2 2.4 2.4 0 0 1 0 .3 2 2 0 0 1 0 .2v.2a.4.4 0 0 1 0 .1l-.1.1a1.5 1.5 0 0 1-.3.2 4.9 4.9 0 0 1-.8.2l-1 .2a7.6 7.6 0 0 1-1.2.1 5.8 5.8 0 0 1-2-.3 3.6 3.6 0 0 1-1.3-.9 3.7 3.7 0 0 1-.9-1.4 6.5 6.5 0 0 1-.3-2 6.2 6.2 0 0 1 .3-2 4.2 4.2 0 0 1 .9-1.5 3.8 3.8 0 0 1 1.4-1 4.7 4.7 0 0 1 1.8-.3 4.5 4.5 0 0 1 1.8.3 3.4 3.4 0 0 1 1.2.9 3.5 3.5 0 0 1 .7 1.3 5.4 5.4 0 0 1 .2 1.6zm-1.7-.5a2.8 2.8 0 0 0-.5-2 2.3 2.3 0 0 0-1.9-.7 2.5 2.5 0 0 0-1 .2 2.3 2.3 0 0 0-.8.6 2.6 2.6 0 0 0-.5.9 3.4 3.4 0 0 0-.2 1zM146.8 59.8v.2a1 1 0 0 1 0 .2.7.7 0 0 1 0 .2 1 1 0 0 1-.3.2 2.5 2.5 0 0 1-.4.3 4.2 4.2 0 0 1-.7.3 5.3 5.3 0 0 1-.8.2 4.7 4.7 0 0 1-.9.1 4.5 4.5 0 0 1-1.7-.3 3.2 3.2 0 0 1-1.3-.9 4 4 0 0 1-.7-1.4 6.7 6.7 0 0 1-.3-2 6.5 6.5 0 0 1 .3-2.2 4 4 0 0 1 1-1.5 3.5 3.5 0 0 1 1.2-.9 4.8 4.8 0 0 1 1.7-.3 4.5 4.5 0 0 1 .8.1 4.8 4.8 0 0 1 .8.2 3.4 3.4 0 0 1 .6.3 2.4 2.4 0 0 1 .4.3 1.3 1.3 0 0 1 .2.2.7.7 0 0 1 0 .1 1 1 0 0 1 0 .2v.3a1 1 0 0 1 0 .5.3.3 0 0 1-.3.2.6.6 0 0 1-.3-.2 5.5 5.5 0 0 0-.5-.3 3.9 3.9 0 0 0-.7-.4 2.9 2.9 0 0 0-1-.1 2.1 2.1 0 0 0-1.9.8 4.3 4.3 0 0 0-.6 2.6 5.8 5.8 0 0 0 .2 1.4 3 3 0 0 0 .4 1 2 2 0 0 0 .8.7 2.6 2.6 0 0 0 1.1.2 2.7 2.7 0 0 0 1-.2 4.3 4.3 0 0 0 .8-.4l.5-.3a.6.6 0 0 1 .3-.2.2.2 0 0 1 .1 0 .3.3 0 0 1 .1.1 1 1 0 0 1 0 .3 3.1 3.1 0 0 1 0 .4zM153 56.5a1 1 0 0 1 0 .5.3.3 0 0 1-.3.2h-4.2a.3.3 0 0 1-.3-.2 1 1 0 0 1 0-.5 1 1 0 0 1 0-.5.3.3 0 0 1 .3-.2h4.2a.4.4 0 0 1 .1 0 .2.2 0 0 1 .1.2.7.7 0 0 1 .1.2 1.6 1.6 0 0 1 0 .3zM164.5 64.3l-.2.1a1.9 1.9 0 0 1-.5 0 1.8 1.8 0 0 1-.5 0l-.1-.1v-3h-7.4a.5.5 0 0 1-.4-.1.6.6 0 0 1-.1-.4v-8.3a.2.2 0 0 1 0-.2.3.3 0 0 1 .1 0 .8.8 0 0 1 .3-.1h.8a.8.8 0 0 1 .2 0 .3.3 0 0 1 .2.1.2.2 0 0 1 0 .2V60h4.3v-7.5a.2.2 0 0 1 0-.2.3.3 0 0 1 .1 0 .8.8 0 0 1 .3-.1h.8a.8.8 0 0 1 .2 0 .3.3 0 0 1 .2.1.2.2 0 0 1 0 .2V60h1.2a.4.4 0 0 1 .3 0 .5.5 0 0 1 .1.4zM173.8 56.4a.6.6 0 0 1-.2.5.7.7 0 0 1-.4.2h-6a5 5 0 0 0 .2 1.3 2.4 2.4 0 0 0 .5 1 2.3 2.3 0 0 0 .9.6 3.8 3.8 0 0 0 1.4.2 5.9 5.9 0 0 0 1.1 0 7 7 0 0 0 .9-.3l.6-.2a1 1 0 0 1 .4-.1.2.2 0 0 1 .2 0 .7.7 0 0 1 0 .3 2.4 2.4 0 0 1 0 .3 2 2 0 0 1 0 .2v.1a.4.4 0 0 1 0 .2h-.2a1.5 1.5 0 0 1-.3.3 4.9 4.9 0 0 1-.7.2l-1 .2a7.6 7.6 0 0 1-1.2 0 5.8 5.8 0 0 1-2-.2 3.6 3.6 0 0 1-1.4-.9 3.7 3.7 0 0 1-.8-1.5 6.5 6.5 0 0 1-.3-2 6.2 6.2 0 0 1 .3-2 4.2 4.2 0 0 1 .9-1.5 3.8 3.8 0 0 1 1.3-.9 4.7 4.7 0 0 1 1.8-.3 4.5 4.5 0 0 1 1.8.3 3.4 3.4 0 0 1 1.3.9 3.5 3.5 0 0 1 .7 1.3 5.4 5.4 0 0 1 .2 1.5zm-1.6-.5a2.8 2.8 0 0 0-.6-2 2.3 2.3 0 0 0-1.8-.7 2.5 2.5 0 0 0-1.1.2 2.3 2.3 0 0 0-.8.6 2.6 2.6 0 0 0-.5.9 3.4 3.4 0 0 0-.2 1zM184.2 61a.2.2 0 0 1 0 .2.3.3 0 0 1-.1.1 1 1 0 0 1-.2 0h-.9a1 1 0 0 1-.2 0 .3.3 0 0 1-.1 0 .2.2 0 0 1 0-.2v-3.8H178v3.8a.2.2 0 0 1 0 .1.3.3 0 0 1-.2.1 1 1 0 0 1-.2 0h-.8a1 1 0 0 1-.3 0 .3.3 0 0 1-.1 0 .2.2 0 0 1 0-.2v-8.6a.2.2 0 0 1 0-.2.3.3 0 0 1 .1 0 .8.8 0 0 1 .3-.1h.8a.8.8 0 0 1 .2 0 .3.3 0 0 1 .2.1.2.2 0 0 1 0 .2V56h4.6v-3.5a.2.2 0 0 1 0-.2.8.8 0 0 1 .3-.1h.9a.8.8 0 0 1 .2 0 .3.3 0 0 1 .1.1.2.2 0 0 1 0 .2zM193.6 53a2.3 2.3 0 0 1 0 .3.7.7 0 0 1 0 .2.4.4 0 0 1-.2.1.3.3 0 0 1-.1 0h-2.7V61a.2.2 0 0 1 0 .2.3.3 0 0 1-.2 0 1 1 0 0 1-.2.1h-.8a1 1 0 0 1-.3 0 .3.3 0 0 1-.1-.1.2.2 0 0 1 0-.2v-7.3h-2.7a.3.3 0 0 1-.2 0 .3.3 0 0 1 0-.2 1 1 0 0 1-.1-.2 1.9 1.9 0 0 1 0-.3 1.7 1.7 0 0 1 0-.3.9.9 0 0 1 0-.3.4.4 0 0 1 .1 0 .2.2 0 0 1 .2 0h7a.3.3 0 0 1 .2 0 1 1 0 0 1 .1.3 1.8 1.8 0 0 1 0 .2zM203.5 56.6a7.4 7.4 0 0 1-.2 2 4.3 4.3 0 0 1-.8 1.6 3.3 3.3 0 0 1-1.2 1 4 4 0 0 1-1.7.3 3.4 3.4 0 0 1-.7 0 2.9 2.9 0 0 1-.7-.3 3.9 3.9 0 0 1-.7-.4l-.6-.6v4.3a.2.2 0 0 1 0 .1.3.3 0 0 1-.2.1 1 1 0 0 1-.2.1h-.8a1 1 0 0 1-.3 0 .3.3 0 0 1-.1-.2v-12a.3.3 0 0 1 0-.2.2.2 0 0 1 .1-.1.8.8 0 0 1 .2 0h.7a.8.8 0 0 1 .3 0 .3.3 0 0 1 0 .2v1.2a9.4 9.4 0 0 1 .9-.7 4.8 4.8 0 0 1 .7-.5 3.7 3.7 0 0 1 .8-.3 4 4 0 0 1 2.6.2 3.1 3.1 0 0 1 1 1 4.3 4.3 0 0 1 .7 1.5 7.6 7.6 0 0 1 .2 1.7zm-1.7.2a7.6 7.6 0 0 0-.1-1.2 3.6 3.6 0 0 0-.4-1.2 2 2 0 0 0-.7-.7 2 2 0 0 0-1-.3 2.3 2.3 0 0 0-.7 0 2.7 2.7 0 0 0-.6.4 4.5 4.5 0 0 0-.7.5 8.1 8.1 0 0 0-.7.8v3.4a7 7 0 0 0 1.3 1.2 2.2 2.2 0 0 0 1.3.4 2 2 0 0 0 1-.3 2.2 2.2 0 0 0 .8-.7 3.7 3.7 0 0 0 .4-1.1 5.5 5.5 0 0 0 .1-1.2zM62.3 33.4l-4.6-2.5c-1.3-.5-4.2-2.6-5.9-2.7a17.7 17.7 0 0 0-5.8 1c-1.8.5-6.6 2.8-9.1 2.6s-6.6-2.4-6.6-2.4l.3 2.6c.9 5.7 4.7 5.8 9.7 5.6 2.3 0 8.2-3.5 8.2-3.5 1.8-1.1-12.2 10.5-27.9 8C8.1 40 4.6 31 5 24.6a43.1 43.1 0 0 1 1-7.5 6.2 6.2 0 0 0 .2-1.3S0 24.9 0 33.8c0 10.2 5.1 17.6 12.3 20 5 1.8 11.4 3 17.4 1 7.6-2.4 14-9.2 16-11.2l6-5.6S36.8 57 25 57a39.6 39.6 0 0 1-20.5-5.4 2.7 2.7 0 0 1 .4.9C7.2 59.9 17.2 69.2 24.6 69c12-.2 21-6.8 28-22.5 2.3-5.1 7.7-10.6 9.5-10.7 1.3 0 1.8-1.7.2-2.4z"/><path fill="#231300" d="M28 32.8A24 24 0 0 1 29.3 22C35.6 6.3 51.8 5.5 63.7 9.3a26 26 0 0 1 7.1 3.3A27 27 0 0 0 63 5.4c-13.6-8.3-31.3.7-36.3 14-2.4 6.3.9 12.3 1.2 13.4z"/><path fill="#231300" d="M39.9.3C23.6 2.3 12.8 20 20.6 33.7a14.8 14.8 0 0 0 5.4 5.4 15.5 15.5 0 0 1-4.8-3c-8.7-8.2-5-22.8 2.6-29.5A11.3 11.3 0 0 0 27.3 2c-.7 0-2.7-.6-7 1.4C6.6 10 1.8 29.5 14.7 39.1c5.4 4 16.2 1.3 17.3 1.6a1 1 0 0 0-.3-.1 23.4 23.4 0 0 1-5-8c-5-12.5 3.8-25 14.3-29.2a24 24 0 0 0 5.8-3c-.7-.3-2-.7-6.8-.1z"/><path fill="url(#m)" d="M75.1 16.1s2 8.2 2.3 12c1.4 12.3-3.2 20.5-12.5 23.4a28.8 28.8 0 0 1-8.4 1.6l.7 1.7-2.9-1.5.7 2.7-2-1.3-.3 3-.6-1s-4 6-7.9 8.8a50.1 50.1 0 0 1-13.9 7.3l8 1.7c3.4.7 12.9 1.5 16.2 0s4.4-3.3 4.4-3.3a8 8 0 0 0 8.2-2.4c3.7-3.9 3.7-6 3.7-6s4.4-.2 7.3-5.7a23.2 23.2 0 0 0 2.8-10.3S84 42 82.2 31s-7-14.8-7-14.8z" transform="translate(-2.7 -1.6)"/></svg>