<svg xmlns="http://www.w3.org/2000/svg" xmlns:xlink="http://www.w3.org/1999/xlink" width="84" height="84" viewBox="0 0 84 84"><defs><linearGradient id="a" x1="42.05" y1="68" x2="42.05" y2="15.98" gradientTransform="matrix(1, 0, 0, -1, 0, 84)" gradientUnits="userSpaceOnUse"><stop offset="0" stop-color="#ca2e34"/><stop offset="1" stop-color="#ad2128"/></linearGradient><linearGradient id="b" x1="46.5" y1="37.05" x2="46.5" y2="24.08" xlink:href="#a"/></defs><title>car-wash-icon</title><path d="M62,82a2,2,0,0,0,2,2H80a4,4,0,0,0,4-4V64a2,2,0,0,0-4,0V78a2,2,0,0,1-2,2H64A2,2,0,0,0,62,82ZM22,82a2,2,0,0,0-2-2H6a2,2,0,0,1-2-2V64a2,2,0,0,0-4,0V80a4,4,0,0,0,4,4H20A2,2,0,0,0,22,82Z" transform="translate(0 0)" fill="#0d0e0f"/><path d="M22,2a2,2,0,0,0-2-2H4A4,4,0,0,0,0,4V20a2,2,0,0,0,4,0V6A2,2,0,0,1,6,4H20A2,2,0,0,0,22,2ZM62,2a2,2,0,0,0,2,2H78a2,2,0,0,1,2,2V20a2,2,0,0,0,4,0V4a4,4,0,0,0-4-4H64A2,2,0,0,0,62,2Z" transform="translate(0 0)" fill="#0d0e0f"/><path d="M42,68A19.07,19.07,0,0,1,23,49C23,39.16,38.67,19,40.46,16.77a2,2,0,0,1,3.18,0C45.42,19,61.09,39.16,61.09,49A19.07,19.07,0,0,1,42,68Zm0-46.67c-5.3,7-15,21.21-15,27.63a15,15,0,0,0,30,0C57,42.56,47.35,28.39,42,21.35Z" transform="translate(0 0)" fill="url(#a)"/><path d="M42,59.92a2,2,0,1,1,0-4.05A6.89,6.89,0,0,0,48.93,49,2,2,0,0,1,53,49,11,11,0,0,1,42,59.92Z" transform="translate(0 0)" fill="url(#b)"/></svg>