<svg xmlns="http://www.w3.org/2000/svg" xmlns:xlink="http://www.w3.org/1999/xlink" width="84" height="84" viewBox="0 0 84 84"><defs><linearGradient id="a" x1="42.06" y1="70" x2="42.06" y2="14" gradientTransform="matrix(1, 0, 0, -1, 0, 84)" gradientUnits="userSpaceOnUse"><stop offset="0" stop-color="#ca2e34"/><stop offset="1" stop-color="#ad2128"/></linearGradient></defs><title>energy-safe-icon</title><path d="M47.63,22.23a1,1,0,0,0-1.83-.78L33.7,42.7a1,1,0,0,0,1,1.48l6.62-1.09L36.69,61.39a1,1,0,0,0,1.86.7L50.44,38.91a1,1,0,0,0-1-1.44l-6.54,1Z" transform="translate(0 0)" fill="url(#a)"/><path d="M62,82a2,2,0,0,0,2,2H80a4,4,0,0,0,4-4V64a2,2,0,0,0-4,0V78a2,2,0,0,1-2,2H64A2,2,0,0,0,62,82ZM22,82a2,2,0,0,0-2-2H6a2,2,0,0,1-2-2V64a2,2,0,0,0-4,0V80a4,4,0,0,0,4,4H20A2,2,0,0,0,22,82Z" transform="translate(0 0)" fill="#0d0e0f"/><path d="M22,2a2,2,0,0,0-2-2H4A4,4,0,0,0,0,4V20a2,2,0,0,0,4,0V6A2,2,0,0,1,6,4H20A2,2,0,0,0,22,2ZM62,2a2,2,0,0,0,2,2H78a2,2,0,0,1,2,2V20a2,2,0,0,0,4,0V4a4,4,0,0,0-4-4H64A2,2,0,0,0,62,2Z" transform="translate(0 0)" fill="#0d0e0f"/><path d="M34,18a2,2,0,0,0-2-2H20a4,4,0,0,0-4,4V32a2,2,0,0,0,4,0V22a2,2,0,0,1,2-2H32A2,2,0,0,0,34,18Z" transform="translate(0 0)" fill="#0d0e0f"/><path d="M64,22a2,2,0,0,0-2-2H52a2,2,0,0,1,0-4H64a4,4,0,0,1,4,4V32a2,2,0,0,1-4,0Z" transform="translate(0 0)" fill="#0d0e0f"/><path d="M50,66a2,2,0,0,0,2,2H64a4,4,0,0,0,4-4V52a2,2,0,0,0-4,0V62a2,2,0,0,1-2,2H52A2,2,0,0,0,50,66Z" transform="translate(0 0)" fill="#0d0e0f"/><path d="M20,62a2,2,0,0,0,2,2H32a2,2,0,0,1,0,4H20a4,4,0,0,1-4-4V52a2,2,0,0,1,4,0Z" transform="translate(0 0)" fill="#0d0e0f"/></svg>