<svg xmlns="http://www.w3.org/2000/svg" xmlns:xlink="http://www.w3.org/1999/xlink" width="84" height="84" viewBox="0 0 84 84"><defs><linearGradient id="a" x1="42" y1="84" x2="42" gradientTransform="matrix(1, 0, 0, -1, 0, 84)" gradientUnits="userSpaceOnUse"><stop offset="0" stop-color="#ca2e34"/><stop offset="1" stop-color="#ad2128"/></linearGradient></defs><title>green-zone-icon</title><path d="M62,82a2,2,0,0,0,2,2H80a4,4,0,0,0,4-4V64a2,2,0,0,0-4,0V78a2,2,0,0,1-2,2H64A2,2,0,0,0,62,82ZM22,82a2,2,0,0,0-2-2H6a2,2,0,0,1-2-2V64a2,2,0,0,0-4,0V80a4,4,0,0,0,4,4H20A2,2,0,0,0,22,82Z" transform="translate(0 0)"/><path d="M83.8,29.89c-.77-7.18-3.63-12.87-8.05-16a2.16,2.16,0,0,0-3.38,1.39c-.48,2.7-5,7.57-7.78,9.32C47.89,35.26,47.3,48,47.28,48.56a2.16,2.16,0,1,0,4.32.14c0-.11.52-11,15.31-20.49a30.69,30.69,0,0,0,8.4-8.88,20.55,20.55,0,0,1,4.18,11c.92,8.56-1.72,17.68-6.73,23.21-6.88,7.6-17.65,8.8-22.14,9,3.29-6.45,7.95-13.35,13.15-15.23a2.17,2.17,0,0,0-1.46-4.08c-8.23,3-14.4,14.39-17.64,21.79A81.5,81.5,0,0,0,24.12,30.31a2.17,2.17,0,1,0-3.06,3.07A76.31,76.31,0,0,1,33.46,49.71,40.13,40.13,0,0,1,13,41.18C7.65,36.82,4.32,28.81,4.32,20.26,4.32,14.22,6,8.9,8.87,5.5c2.78,3.1,6.94,5.09,10.14,6.6,1.06.5,2.06,1,2.82,1.45,15.86,8.83,16.54,27.66,16.55,27.9a2.35,2.35,0,0,0,2.16,2.32h0a2.34,2.34,0,0,0,2.11-2.43c0-.87-.68-21.62-18.78-31.7-.9-.5-2-1-3.08-1.53-3.56-1.68-8-3.77-9.83-7A2.16,2.16,0,0,0,7.77.49C2.9,4.46,0,11.85,0,20.24c0,10,3.84,19,10.26,24.29a44.21,44.21,0,0,0,25.58,9.72c7.17,14.88,7.41,27.42,7.42,27.6A2.17,2.17,0,0,0,45.42,84h0a2.16,2.16,0,0,0,2.14-2.18,57,57,0,0,0-1.13-9.56c.49-1.43,1.21-3.29,2.13-5.39l1.09,0C54,66.89,67.3,66.06,76,56.48,81.77,50.07,84.84,39.63,83.8,29.89Z" transform="translate(0 0)" fill="url(#a)"/><path d="M24.12,30.31A81.5,81.5,0,0,1,44.68,65c.56,2.26,1.7,6.89,1.77,7.26a57,57,0,0,1,1.13,9.56A2.16,2.16,0,0,1,45.44,84h0a2.17,2.17,0,0,1-2.16-2.15c0-.18-.24-12.72-7.42-27.6l-2.38-4.54A76.31,76.31,0,0,0,21.07,33.38a2.17,2.17,0,1,1,3.06-3.07Z" transform="translate(0 0)"/></svg>