<svg xmlns="http://www.w3.org/2000/svg" xmlns:xlink="http://www.w3.org/1999/xlink" style="display:none"><symbol id="arrow-back"><path d="M0 9.3a2.2 2.2 0 0 1 .6-1.6L7.8.4a1.2 1.2 0 0 1 1.8 0 1.5 1.5 0 0 1 0 2L3 9.3l6.6 6.2a1.5 1.5 0 0 1 0 2 1.2 1.2 0 0 1-1.7.2L.7 10.9A2.2 2.2 0 0 1 0 9.3z"/></symbol><symbol id="arrow-opt"><path d="M7.2 8A1.69 1.69 0 0 1 6 7.51L.29 1.74A1 1 0 0 1 .35.28a1.14 1.14 0 0 1 1.55 0l5.3 5.35L12.08.36a1.14 1.14 0 0 1 1.54-.1 1 1 0 0 1 .11 1.46L8.44 7.47A1.69 1.69 0 0 1 7.23 8z"/></symbol></svg>